<svg version="1.2" xmlns="http://www.w3.org/2000/svg" viewBox="0 0 1000 1000" width="1000" height="1000">
	<title>J_0346_23-ai</title>
	<style>
		.s0 { fill: #ebf0f6 } 
		.s1 { fill: #1c3e58 } 
		.s2 { fill: #25ce9e } 
	</style>
	<g id="illustration">
		<g id="&lt;Group&gt;">
			<g id="&lt;Group&gt;">
				<path id="&lt;Path&gt;" class="s0" d="m831.1 734c0 6.5-9.1 11.7-20.3 11.7-11.1 0-20.2-5.2-20.2-11.7 0-2.5 1.4-4.9 3.8-6.8v3.2l3.8 4.3 6 2.5 9.1 0.6 9.1-3.1 2.9-2.9 1.4-5.1c2.8 2 4.4 4.6 4.4 7.3z"/>
			</g>
			<g id="&lt;Group&gt;">
				<path id="&lt;Path&gt;" class="s0" d="m748 849.6l-6.5 12.1-11.7 10.9-15 8.2-25 7.3q-21.3 2.2-22.1 2.2c-0.7 0.1-20.8-1-21.2-1-0.5-0.1-23.2-5-23.8-5.2q-0.6-0.2-17.4-7.5l-8.8-5.7-10.7-10.8-5.4-11.2q-0.7-6.1-1-8.9c-1.5 3.9-2.3 8-2.3 12.1 0 28.7 39 52 87.2 52 48.2 0 87.2-23.3 87.2-52 0-3.5-0.6-6.9-1.7-10.2z"/>
			</g>
			<g id="&lt;Group&gt;">
				<g id="&lt;Group&gt;">
					<path id="&lt;Path&gt;" class="s0" d="m332.6 863.1l-6.6-8.3 50.4 29.1-7.4 0.3-16.6-7.3z"/>
				</g>
				<g id="&lt;Group&gt;">
					<path id="&lt;Path&gt;" class="s0" d="m400.3 909.5c-5.6 3.3-14.8 3.3-20.4 0l-284.1-163.9c-5.6-3.3-5.6-8.6 0-11.9 4.7-2.6 11.7-3.1 17.2-1.4l9 12.2 12.7 12.1 9.4 7.9 8.1 5.1 9.8 4.8 14.5 3.3 8.8-0.6 4.3-1 13.5 7.8 4.1 3.9 5.7 1.7 98.1 56.6 7.1 10.2q11.4 12.4 11.7 12.9 0.4 0.4 13.5 10.7l16.6 8.4 15.3 3.4 12.4-1.3 12.7 7.3c5.7 3.3 5.7 8.6 0 11.8z"/>
				</g>
			</g>
			<g id="&lt;Group&gt;">
				<path id="&lt;Path&gt;" class="s0" d="m412.3 724.9l89.3-51.4 11.7 7.1-97.3 59.1-41.1-23 10-7.3z"/>
			</g>
			<g id="&lt;Group&gt;">
				<path id="&lt;Path&gt;" class="s0" d="m334.9 452.9l7.8 7.7 10.7 3.9 11.6 2.2 13.8-0.2 11.3-2.3 1.1 5.8c-13.4 6.4-34.7 4.2-46.4-2.9q-11.4-7-11.9-19.2z"/>
			</g>
			<g id="&lt;Group&gt;">
				<path id="&lt;Path&gt;" class="s0" d="m198.5 509.1l9 7.6 12.8 5.3 12.9 1.9 14.7-0.8 5.2-1.1 8.5 2.6 13.8 1.8 16.9 0.4 16.4-3.1 12-4.7 12.2-9 5-7.9 0.4-7.9q13.6 22.2-20.8 35.5-34.3 13.2-64.1-1.5c-15.6 4.9-30.8 5.9-47.3-3.4q-16.6-9.4-11.8-22.7z"/>
			</g>
			<g id="&lt;Group&gt;">
				<g id="&lt;Group&gt;">
					<g id="&lt;Group&gt;">
						<path id="&lt;Path&gt;" class="s1" d="m277.4 256.5l-10.5-5.8c-1.5-0.8-2.4-2.7-2.4-5.1 0-4.4 3.1-9.9 7-12.2 1.9-1.1 3.8-1.3 5.3-0.5 0 0 3 1.6 3.1 1.7l-0.8 1.3c-0.1-0.1-2.8-1.6-3-1.7-1-0.5-2.4-0.3-3.8 0.5-3.5 2-6.3 6.9-6.3 10.9 0 1.9 0.6 3.2 1.6 3.8l10.5 5.8z"/>
					</g>
					<g id="&lt;Group&gt;">
						<g id="&lt;Group&gt;">
							<path id="&lt;Path&gt;" class="s1" d="m287.9 402.1c-3.1 0-6.2-0.7-8.6-2.1-2.4-1.4-3.8-3.3-3.8-5.4l1.5-0.1c0 1.6 1.1 3.1 3.1 4.2 4.3 2.5 11.4 2.5 15.7 0 2-1.1 3-2.6 3-4.1l1.5-0.1c0 2.2-1.3 4.1-3.8 5.5-2.3 1.4-5.5 2.1-8.6 2.1z"/>
						</g>
						<g id="&lt;Group&gt;">
							<g id="&lt;Group&gt;">
								<path id="&lt;Path&gt;" class="s1" d="m287.9 423.9c-3.2 0-6.4-0.7-8.9-2.1-2.4-1.4-3.8-3.4-3.9-5.4l1.5-0.1c0.1 1.5 1.2 3 3.1 4.2 4.5 2.6 11.9 2.6 16.3 0 2-1.1 3.1-2.6 3.2-4.1l1.5 0.1c-0.2 2.1-1.6 3.9-3.9 5.3-2.5 1.4-5.7 2.1-8.9 2.1z"/>
							</g>
						</g>
						<g id="&lt;Group&gt;">
							<path id="&lt;Path&gt;" class="s1" d="m299.4 447.9l-3.6-174.6h2.5l3.6 174.6z"/>
						</g>
						<g id="&lt;Group&gt;">
							<path id="&lt;Path&gt;" class="s1" d="m276.6 437.5l-2.5-0.1 3-141.9h2.5z"/>
						</g>
					</g>
					<g id="&lt;Group&gt;">
						<g id="&lt;Group&gt;">
							<path id="&lt;Path&gt;" class="s1" d="m376.5 322.8q-0.4 0-0.7-0.2l-82.2-56.2 1.4-2 80.2 54.8v-6.8l-50.9-66.6-19.3 4.7-0.6-2.5 20.1-4.8c0.5-0.2 1 0 1.3 0.4l51.6 67.6q0.3 0.3 0.3 0.8l0.1 9.5c0 0.5-0.3 0.9-0.7 1.1q-0.3 0.2-0.6 0.2z"/>
						</g>
						<g id="&lt;Group&gt;">
							<path id="&lt;Path&gt;" class="s1" d="m286.1 247.5l-4.6-20.4q-0.1-0.3 0-0.7l45.6-129.8q0.1-0.2 0.2-0.3l6.9-9c0.4-0.5 1-0.7 1.5-0.4 0.6 0.2 0.9 0.8 0.7 1.4l-34 153.1-2.4-0.6 32.8-147.6-3.4 4.4-45.4 129.3 4.5 20z"/>
						</g>
						<g id="&lt;Group&gt;">
							<path id="&lt;Path&gt;" class="s1" d="m175.8 360.6q0 0-0.1 0l-7-0.6c-0.5 0-0.9-0.4-1.1-0.8-0.1-0.5 0-1 0.4-1.4l113.5-99 1.7 1.9-111.3 97.1 3.6 0.2 96.6-61.8 17.2-29.6 2.1 1.3-17.3 29.8q-0.1 0.3-0.4 0.5l-97.2 62.2q-0.3 0.2-0.7 0.2z"/>
						</g>
					</g>
					<g id="&lt;Group&gt;">
						<path id="&lt;Compound Path&gt;" fill-rule="evenodd" class="s1" d="m288.1 268.1q-1.9 0-3.5-0.9c-2.4-1.4-3.7-4.2-3.7-7.9 0-7.1 5.1-15.8 11.5-19.3 3.3-1.9 6.6-2.2 9-0.7 2.4 1.4 3.7 4.2 3.7 7.8 0 7.1-5.1 15.8-11.5 19.4-1.9 1.1-3.8 1.6-5.5 1.6zm9.8-27.3c-1.3 0-2.8 0.5-4.3 1.3-5.6 3.2-10.2 10.9-10.2 17.2 0 2.7 0.8 4.8 2.4 5.7 1.7 1 4 0.7 6.6-0.7 5.6-3.2 10.2-10.9 10.2-17.2 0-2.7-0.8-4.7-2.4-5.7q-1.1-0.6-2.3-0.6z"/>
					</g>
					<g id="&lt;Group&gt;">
						<path id="&lt;Path&gt;" class="s2" d="m293.1 249.4c2.1-1.3 4.4 0.1 4.4 2.5 0 2.4-1.4 5.3-3.5 6.5-2.1 1.2-4.7 0-4.7-2.4 0-2.5 1.7-5.4 3.8-6.6z"/>
					</g>
				</g>
				<g id="&lt;Group&gt;">
					<g id="&lt;Group&gt;">
						<path id="&lt;Path&gt;" class="s2" d="m318.1 468.1c-2.1-10.4-12.1-18.8-24.7-20.8q-0.3 0-0.5-0.2c-5.9-5.9-14.8-9.4-24.3-9.4-11 0-20.9 4.5-26.6 11.9l-1.2-0.9c6-7.8 16.4-12.5 27.8-12.5 9.8 0 19 3.5 25.2 9.7 13.2 2.1 23.5 10.9 25.7 21.9z"/>
					</g>
					<g id="&lt;Group&gt;">
						<path id="&lt;Path&gt;" class="s2" d="m283.3 527.9c-10.5 0-21-1.7-30.2-5.1-5.2 1.3-10.7 2-16.3 2-23.7 0-43.1-12.1-43.1-26.9 0-8.5 6.3-16.4 17.3-21.5l0.6 1.4c-10.4 4.8-16.4 12.2-16.4 20.1 0 14 18.7 25.4 41.6 25.4 5.6 0 11-0.7 16.1-2q0.2-0.1 0.5 0c21.7 8.2 50.8 6.4 69.2-4.2 8.7-5 13.8-11.5 14.8-18.8 0.8-6.5-1.9-13.3-7.8-19.2l1.1-1c6.2 6.1 9.1 13.4 8.1 20.4-1 7.8-6.3 14.6-15.5 19.9-10.8 6.3-25.3 9.5-40 9.5z"/>
					</g>
					<g id="&lt;Group&gt;">
						<path id="&lt;Path&gt;" class="s2" d="m331.4 479.2c0.3 4.8-2.2 9.2-6.2 11.8-0.5 8.3-8 14.8-17.2 14.8-9.6 0-17.4-7-17.4-15.7 0-7.3 5.6-13.5 13.1-15.2 2.1-4.3 6.7-7.5 12.2-7.9q1.5-0.1 2.9 0c6.7 0.8 12.1 5.7 12.6 12.2z"/>
					</g>
					<g id="&lt;Group&gt;">
						<path id="&lt;Path&gt;" class="s2" d="m283.4 479.8c-0.3 9-10 16-21.6 15.6-5.4-0.2-10.2-1.9-13.9-4.6-3.7 2.3-8.2 3.7-13 3.7-13.4 0.2-24.3-9.9-24.3-22.4 0-12.6 10.8-22.9 24.2-23 10.1-0.2 18.8 5.6 22.5 13.9q2.6-0.5 5.5-0.4c11.7 0.4 20.9 8.1 20.6 17.2z"/>
					</g>
				</g>
				<g id="&lt;Group&gt;">
					<g id="&lt;Group&gt;">
						<path id="&lt;Path&gt;" class="s2" d="m390.9 449.2c-4.5 3.4-10.5 5.4-17.1 5.2-8.4-0.3-15.6-4.1-19.7-9.7q-1.9 0.5-3.9 0.4c-7-0.3-12.5-5.1-12.2-10.8 0.2-5.8 6-10.2 13-10q1.4 0.1 2.7 0.4c4.3-6 12.4-10 21.5-9.6 6.7 0.2 12.7 2.7 16.9 6.5z"/>
					</g>
					<g id="&lt;Group&gt;">
						<path id="&lt;Path&gt;" class="s2" d="m370 467.8c-20.9 0-37.8-9.8-37.8-21.8 0-6.2 3-9.4 6.3-11.9l0.9 1.2c-3.4 2.7-5.7 5.5-5.7 10.7 0 11.2 16.3 20.3 36.3 20.3 7.3 0 14.4-1.2 20.5-3.5l0.5 1.4c-6.2 2.3-13.5 3.6-21 3.6z"/>
					</g>
				</g>
				<g id="&lt;Group&gt;">
					<g id="&lt;Group&gt;">
						<path id="&lt;Path&gt;" class="s1" d="m392.5 327.8l-7.9-4.6c-1.2-0.6-2-2.1-2-4 0-3.6 2.5-7.8 5.6-9.6 1.5-0.9 3-1.1 4.2-0.5l1.9 0.9-0.7 1.4-1.8-0.9c-0.8-0.4-1.8-0.3-2.9 0.4-2.6 1.5-4.8 5.2-4.8 8.3 0 1.3 0.5 2.3 1.3 2.7l7.9 4.6z"/>
					</g>
					<g id="&lt;Group&gt;">
						<g id="&lt;Group&gt;">
							<g id="&lt;Group&gt;">
								<path id="&lt;Path&gt;" class="s1" d="m400.9 455c-2.5 0-5.1-0.5-7-1.7-1.9-1.1-3-2.6-3.1-4.3l1.5-0.1c0 1.2 0.9 2.3 2.4 3.1 3.4 2 9 2 12.5 0 1.4-0.8 2.3-1.8 2.4-3l1.5 0.2c-0.2 1.6-1.3 3.1-3.1 4.1-2 1.2-4.5 1.7-7.1 1.7z"/>
							</g>
						</g>
						<g id="&lt;Group&gt;">
							<path id="&lt;Path&gt;" class="s1" d="m401 436.3c-2.5 0-4.9-0.5-6.7-1.6-1.9-1.1-3-2.6-3.1-4.3l1.5-0.1c0.1 1.2 0.9 2.3 2.3 3.1 3.3 1.9 8.6 1.9 11.9 0 1.5-0.8 2.2-1.9 2.2-3l1.5-0.1c0.1 1.7-1 3.3-3 4.4-1.8 1.1-4.2 1.6-6.6 1.6z"/>
						</g>
						<g id="&lt;Group&gt;">
							<path id="&lt;Path&gt;" class="s1" d="m392 491.7h-2.5q0.6-31.1 2.7-130.7h2.5q-2.1 99.6-2.7 130.7z"/>
						</g>
						<g id="&lt;Group&gt;">
							<path id="&lt;Path&gt;" class="s1" d="m409.4 465.6l-2.6-121.2 2.5-0.1 2.6 121.3z"/>
						</g>
					</g>
					<g id="&lt;Group&gt;">
						<g id="&lt;Group&gt;">
							<path id="&lt;Path&gt;" class="s1" d="m469.1 379.1q-0.4 0-0.7-0.2l-63.1-43.2 1.4-2 61.1 41.8v-4.6l-39.2-51.3-14.9 3.7-0.6-2.5 15.7-3.8c0.5-0.1 1 0 1.3 0.4l39.9 52.3q0.3 0.3 0.3 0.7v7.4c0 0.5-0.2 0.9-0.6 1.2q-0.3 0.1-0.6 0.1z"/>
						</g>
						<g id="&lt;Group&gt;">
							<path id="&lt;Path&gt;" class="s1" d="m399.3 320.9l-3.6-16q-0.1-0.3 0-0.7l35.3-100.3q0-0.2 0.2-0.4l5.3-7c0.4-0.4 1-0.6 1.5-0.3 0.6 0.2 0.9 0.8 0.7 1.4l-26.4 118.8-2.4-0.5 25.2-113.4-1.8 2.4-35.1 99.8 3.6 15.7z"/>
						</g>
						<g id="&lt;Group&gt;">
							<path id="&lt;Path&gt;" class="s1" d="m314.3 408.3q-0.1 0-0.1 0l-5.4-0.4c-0.5-0.1-1-0.4-1.1-0.9-0.2-0.5 0-1 0.3-1.3l88.6-77.2 1.6 1.8-86.3 75.3 2.1 0.2 74.5-47.7 13.5-22.9 2.1 1.3-13.6 23.1q-0.1 0.3-0.4 0.4l-75.1 48.1q-0.3 0.2-0.7 0.2z"/>
						</g>
					</g>
					<g id="&lt;Group&gt;">
						<path id="&lt;Compound Path&gt;" fill-rule="evenodd" class="s1" d="m401 337.1q-1.6 0-2.9-0.8c-1.9-1.1-2.9-3.2-2.9-6 0-5.4 3.9-11.8 8.8-14.5 2.7-1.4 5.2-1.6 7.2-0.4 1.8 1.1 2.9 3.2 2.9 6 0 5.4-3.9 11.8-8.9 14.5-1.4 0.8-2.9 1.2-4.2 1.2zm7.3-20c-0.9 0-2 0.3-3.1 0.9-4 2.2-7.5 7.9-7.5 12.3 0 1.9 0.6 3.2 1.7 3.9 1.1 0.6 2.8 0.5 4.6-0.5 4.1-2.3 7.6-7.9 7.6-12.3 0-1.9-0.6-3.3-1.7-3.9q-0.7-0.4-1.6-0.4z"/>
					</g>
					<g id="&lt;Group&gt;">
						<path id="&lt;Path&gt;" class="s2" d="m405 322.1c1.6-1 3.4 0 3.4 1.9 0 1.9-1.1 4.1-2.8 5-1.6 1-3.6 0-3.6-1.8 0-1.9 1.3-4.2 3-5.1z"/>
					</g>
				</g>
			</g>
			<g id="&lt;Group&gt;">
				<g id="&lt;Group&gt;">
					<g id="&lt;Group&gt;">
						<g id="&lt;Group&gt;">
							<path id="&lt;Path&gt;" class="s2" d="m745.4 186.2c55.1 22.6 93.9 76.7 93.9 139.9 0 36.4-12.9 69.8-34.4 95.9-12.2 6.8-22.6 11.5-24.2 8.4-4.4-8 7.2-20.9 7.2-23.3 0-2.4-2.9-12.9-3.9-18.3-0.9-5.3 8.2-21.5 9.1-26.1 1-4.5-4.8-14.2-7.2-18.3-2.4-4.2-2.4-18.9-5.2-18.9-2.9 0-23.6 10.1-32.7 9.9-9.1-0.1-25.9-24.3-27.8-26.8-2-2.5 0.4-12.4 0-15.8-0.5-3.4-4.4-6.7-4.4-10 0-3.4 18.8-27.4 18.8-28.4 0-1-2-10.5-2.4-17.5-0.5-7 6.2-8.9 7.2-11.8 0.9-2.8-9.6-14.4-9.6-16.3 0-1.9 5.2-9.9 5.2-12.8 0-2.9 5.3-3.5 5.3-6.5 0-0.9 2.1-2.1 5.1-3.3z"/>
						</g>
						<g id="&lt;Group&gt;">
							<path id="&lt;Path&gt;" class="s2" d="m648.6 203.1c-0.9 1.6-8.1 13.2-11.3 14.8-2.1 1.2-6.5 1.6-10.2 1.9v-25.6c4.5-0.8 11.2-2.5 13.6-3.2 3.6-0.9 8.9 10.4 7.9 12.1z"/>
						</g>
						<g id="&lt;Group&gt;">
							<path id="&lt;Path&gt;" class="s2" d="m657.3 374.7c0 3.5 1.4 9.4 0 14.1-1.5 4.8-12.5 10.2-18.8 11.1-6.2 1-7.7 18.8-7.7 22.1 0 3.4-6.5 11.6-10.4 13.5-3.8 1.9-12.1-2-17.4-10.6-5.3-8.6-13-32.2-15.9-36.1-2.8-3.9-9.1-8.6-15.8-18.2-1.9-2.7-3.4-6.7-4.5-11.2 1.3 0.6 22.1 10.1 49.2-1.2 8.5-3.6 17.9-12 18-12.5 4.7 0.8 11.6-0.1 17.7 0.9 7.6 1.4 14.2 13.3 15.6 14.7 2.9 2.8-10 9.8-10 13.4z"/>
						</g>
						<g id="&lt;Group&gt;">
							<path id="&lt;Path&gt;" class="s1" d="m688.2 478.4c-36.4 0-71.6-13-99.2-36.7-27.2-23.4-45.4-55.7-51.2-90.9l2.5-0.4c11.9 72.7 74.1 125.5 147.9 125.5 5.2 0 10.5-0.3 15.7-0.8l0.2 2.5c-5.2 0.5-10.6 0.8-15.9 0.8z"/>
						</g>
						<g id="&lt;Group&gt;">
							<path id="&lt;Path&gt;" class="s1" d="m766 457.1l-1.3-2.2c45.2-26.9 73.3-76.3 73.3-128.8 0-82.6-67.2-149.9-149.8-149.9-18.7 0-36.9 3.4-54.1 10.1l-0.9-2.3c17.5-6.8 36-10.3 55-10.3 84 0 152.3 68.4 152.3 152.4 0 26.9-7.1 53.3-20.5 76.4-13 22.4-31.7 41.3-54 54.6z"/>
						</g>
					</g>
				</g>
				<g id="&lt;Group&gt;">
					<g id="&lt;Group&gt;">
						<path id="&lt;Path&gt;" class="s2" d="m588.8 349.5c-29.9 0-54.3-24.3-54.3-54.2 0-18.8 10-36.5 26.1-46.4l0.7 1.3c-15.6 9.6-25.3 26.8-25.3 45.1 0 29 23.7 52.7 52.8 52.7 29 0 52.7-23.7 52.7-52.7 0-18.6-9.9-36-25.9-45.4l-5.5-3.3c-0.3-0.2-0.4-0.4-0.4-0.7v-82.3h1.5v81.9l5.2 3.1c16.4 9.7 26.6 27.6 26.6 46.7 0 29.9-24.3 54.2-54.2 54.2z"/>
					</g>
					<g id="&lt;Group&gt;">
						<path id="&lt;Path&gt;" class="s2" d="m567 247l-0.8-1.3 0.4-0.2v-15.3h1.5v15.7c0 0.3-0.1 0.5-0.4 0.7z"/>
					</g>
					<g id="&lt;Group&gt;">
						<path id="&lt;Path&gt;" class="s2" d="m568.1 224.3h-1.5v-15.6h1.5z"/>
					</g>
					<g id="&lt;Group&gt;">
						<path id="&lt;Path&gt;" class="s2" d="m568.1 202.8h-1.5v-15.7h1.5z"/>
					</g>
					<g id="&lt;Group&gt;">
						<path id="&lt;Path&gt;" class="s2" d="m568.1 179.3h-1.5v-15.7h1.5z"/>
					</g>
					<g id="&lt;Group&gt;">
						<path id="&lt;Path&gt;" class="s2" d="m588.9 177.2c-5.7 0-11.3-1.2-15.7-3.7-4.3-2.6-6.7-6-6.7-9.6h1.5c0 3.1 2.1 6 6 8.3 8.2 4.7 21.6 4.7 29.9 0 3.8-2.3 5.9-5.2 5.9-8.2 0-3.1-2.1-6-5.9-8.2-8.3-4.8-21.7-4.8-29.9 0q-2.6 1.5-4.1 3.3l-1.1-1q1.7-2 4.4-3.6c8.7-5 22.8-5 31.4 0 4.4 2.5 6.7 5.9 6.7 9.5 0 3.6-2.3 7-6.7 9.5-4.3 2.5-10 3.7-15.7 3.7z"/>
					</g>
					<g id="&lt;Group&gt;">
						<g id="&lt;Group&gt;">
							<path id="&lt;Path&gt;" class="s1" d="m588.9 259.2c-1.4 0-2.7-0.6-3.5-1.6-8.2-0.5-15.7-2.6-21.6-6-4-2.3-7-5-8.9-8.2l1.2-0.8c1.8 3 4.7 5.5 8.4 7.7 5.7 3.3 13.3 5.4 21.3 5.8 0.2 0 0.4 0.1 0.5 0.3 0.6 0.8 1.6 1.3 2.6 1.3 1.8 0 3.2-1.4 3.2-3.2 0-1.7-1.4-3.1-3.2-3.1-0.9 0-1.8 0.4-2.4 1.2q-0.3 0.2-0.7 0.2c-7.5-0.4-14.3-2.2-19.7-5.3-3.6-2.1-6.3-4.7-7.7-7.5l1.3-0.6c1.3 2.5 3.8 4.8 7.2 6.8 5.1 2.9 11.5 4.7 18.7 5.1 0.8-0.9 2-1.4 3.3-1.4 2.6 0 4.7 2.1 4.7 4.6 0 2.6-2.1 4.7-4.7 4.7z"/>
						</g>
						<g id="&lt;Group&gt;">
							<path id="&lt;Path&gt;" class="s1" d="m588.9 237c-1.4 0-2.7-0.6-3.5-1.7-8.2-0.5-15.7-2.5-21.6-5.9q-2.7-1.6-4.9-3.5l1-1.1q2 1.8 4.6 3.3c5.7 3.3 13.3 5.3 21.3 5.7 0.2 0 0.4 0.2 0.5 0.3 0.6 0.9 1.6 1.4 2.6 1.4 1.8 0 3.2-1.5 3.2-3.2 0-1.8-1.4-3.2-3.2-3.2-0.9 0-1.8 0.5-2.4 1.2q-0.3 0.3-0.7 0.3c-7.5-0.4-14.3-2.3-19.7-5.3-3.4-2.1-6-4.5-7.5-7.1l1.3-0.7c1.3 2.3 3.8 4.6 7 6.5 5.1 2.9 11.5 4.6 18.7 5.1 0.8-1 2-1.5 3.3-1.5 2.6 0 4.7 2.1 4.7 4.7 0 2.6-2.1 4.7-4.7 4.7z"/>
						</g>
						<g id="&lt;Group&gt;">
							<path id="&lt;Path&gt;" class="s1" d="m588.9 214.7c-1.4 0-2.7-0.6-3.5-1.6-8.2-0.5-15.7-2.6-21.6-6q-2.8-1.6-5-3.5l1-1.1q2.1 1.8 4.7 3.3c5.7 3.3 13.3 5.4 21.3 5.8 0.2 0 0.4 0.1 0.5 0.3 0.6 0.8 1.6 1.3 2.6 1.3 1.8 0 3.2-1.4 3.2-3.2 0-1.7-1.4-3.1-3.2-3.1-0.9 0-1.8 0.4-2.4 1.2q-0.3 0.3-0.7 0.2c-7.5-0.4-14.3-2.2-19.7-5.3-3.2-1.9-5.7-4.1-7.2-6.5l1.3-0.8c1.4 2.2 3.7 4.3 6.7 6 5.1 2.9 11.5 4.7 18.7 5.1 0.8-0.9 2-1.4 3.3-1.4 2.6 0 4.7 2.1 4.7 4.6 0 2.6-2.1 4.7-4.7 4.7z"/>
						</g>
						<g id="&lt;Group&gt;">
							<path id="&lt;Path&gt;" class="s1" d="m588.9 192.5c-1.4 0-2.7-0.6-3.5-1.7-8.2-0.5-15.7-2.5-21.6-5.9q-2.7-1.6-4.8-3.4l1-1.1q2 1.7 4.5 3.2c5.7 3.3 13.3 5.3 21.3 5.7 0.2 0 0.4 0.2 0.5 0.3 0.6 0.9 1.6 1.4 2.6 1.4 1.8 0 3.2-1.5 3.2-3.2 0-1.7-1.4-3.2-3.2-3.2-0.9 0-1.8 0.5-2.4 1.2q-0.3 0.3-0.7 0.3c-7.5-0.4-14.3-2.3-19.7-5.3-3.3-2-5.8-4.2-7.3-6.7l1.3-0.8c1.4 2.2 3.7 4.4 6.8 6.2 5.1 2.9 11.5 4.6 18.7 5.1 0.8-0.9 2-1.5 3.3-1.5 2.6 0 4.7 2.1 4.7 4.7 0 2.6-2.1 4.7-4.7 4.7z"/>
						</g>
						<g id="&lt;Group&gt;">
							<path id="&lt;Path&gt;" class="s1" d="m588.9 170.2c-1.4 0-2.7-0.6-3.5-1.6-8.2-0.5-15.7-2.6-21.6-6q-2.7-1.5-4.9-3.4l1-1.1q2 1.7 4.6 3.2c5.7 3.3 13.3 5.4 21.3 5.8 0.2 0 0.4 0.1 0.5 0.3 0.6 0.8 1.6 1.3 2.6 1.3 1.8 0 3.2-1.4 3.2-3.1 0-1.8-1.4-3.2-3.2-3.2-0.9 0-1.8 0.4-2.4 1.2q-0.3 0.3-0.7 0.2c-7.5-0.4-14.3-2.2-19.7-5.3-3.2-1.9-5.6-4-7.1-6.4l1.2-0.8c1.4 2.1 3.7 4.2 6.7 5.9 5.1 2.9 11.5 4.7 18.7 5.1 0.8-0.9 2-1.4 3.3-1.4 2.6 0 4.7 2.1 4.7 4.7 0 2.5-2.1 4.6-4.7 4.6z"/>
						</g>
					</g>
					<g id="&lt;Group&gt;">
						<path id="&lt;Compound Path&gt;" fill-rule="evenodd" class="s1" d="m589.7 357.6q-0.8 0-1.6 0c-31.7-0.9-58.3-26.3-60.5-57.9-1.6-23.4 9.8-45.5 29.7-57.7 1.2-0.8 1.9-2.1 1.9-3.5v-98c0-16.5 13.5-30.3 30.1-30.6q0.3 0 0.5 0c7.9 0 15.4 3.1 21.1 8.8 6.1 6 9.6 14.2 9.6 22.7v97.1c0 1.4 0.7 2.7 2 3.5 20.9 12.8 32.2 36 29.4 60.5-1.4 11.6-5.9 22.5-13.2 31.6-12.1 15-29.8 23.5-49 23.5zm0.1-245.2q-0.2 0-0.5 0c-15.2 0.3-27.6 12.9-27.6 28.1v98c0 2.3-1.1 4.4-3.1 5.6-19.1 11.7-30.1 33-28.5 55.4 2.1 30.3 27.6 54.7 58.1 55.6 18.9 0.4 36.6-7.8 48.6-22.6 6.9-8.7 11.3-19.1 12.6-30.2 2.7-23.6-8.2-45.9-28.2-58.2-2-1.2-3.2-3.3-3.2-5.6v-97.1c0-7.8-3.2-15.4-8.8-20.9-5.3-5.2-12.2-8.1-19.4-8.1q0 0 0 0z"/>
					</g>
				</g>
				<g id="&lt;Group&gt;">
					<g id="&lt;Group&gt;">
						<path id="&lt;Path&gt;" class="s2" d="m704 512.5q-7.8 0.7-15.8 0.7c-100.4 0-182.5-79.4-186.9-178.8l-15.6 15.6-5-5.1 23.9-23.9 23.9 23.9-5 5.1-15.1-15.1c4.6 95.2 83.5 171.2 179.8 171.2q8 0 15.8-0.7z"/>
					</g>
					<g id="&lt;Group&gt;">
						<path id="&lt;Path&gt;" class="s2" d="m875.3 326.1c0 61.8-30.2 116.7-76.5 150.8l-6.6-4c46-32.6 76-86.3 76-146.8 0-99.3-80.8-180-180-180-13.5 0-27 1.5-40 4.4l-1.6-6.9c13.6-3.1 27.6-4.6 41.6-4.6 103.2 0 187.1 83.9 187.1 187.1z"/>
					</g>
				</g>
			</g>
			<g id="&lt;Group&gt;">
				<g id="&lt;Group&gt;">
					<g id="&lt;Group&gt;">
						<path id="&lt;Path&gt;" class="s1" d="m412.1 727.1l-27.8-15.7c-0.4-0.2-0.7-0.6-0.7-1.1v-6.5h2.5v5.8l27.2 15.4z"/>
					</g>
					<g id="&lt;Group&gt;">
						<path id="&lt;Compound Path&gt;" fill-rule="evenodd" class="s1" d="m412.3 727.1q-0.3 0-0.6-0.1c-0.4-0.2-0.6-0.7-0.6-1.1v-11.7c0-0.4 0.2-0.8 0.6-1.1l89.3-51.4c0.3-0.2 0.8-0.2 1.2 0 0.4 0.2 0.6 0.6 0.6 1.1v11.6c0 0.5-0.2 0.9-0.6 1.1l-89.2 51.5q-0.3 0.1-0.7 0.1zm1.3-12.1v8.7l86.7-50v-8.8z"/>
					</g>
					<g id="&lt;Group&gt;">
						<path id="&lt;Path&gt;" class="s1" d="m500.9 663.7l-26.6-15.4-14.7 8.5-1.2-2.2 15.3-8.8c0.4-0.2 0.8-0.2 1.2 0l27.2 15.7z"/>
					</g>
					<g id="&lt;Group&gt;">
						<path id="&lt;Path&gt;" class="s1" d="m411.2 715.4l-19.6-11.4 1.2-2.1 19.7 11.3z"/>
					</g>
					<g id="&lt;Group&gt;">
						<path id="&lt;Path&gt;" class="s1" d="m423.1 677.8l-1.2-2.1 7.2-4.2 1.2 2.2z"/>
					</g>
					<g id="&lt;Group&gt;">
						<g id="&lt;Group&gt;">
							<g id="&lt;Group&gt;">
								<path id="&lt;Path&gt;" class="s1" d="m442.9 685.6q-2.9 0-5.6-0.7c-5.6-1.5-9-4.8-8.9-8.5l0.3-17.8h2.5l-0.3 17.9c-0.1 2.5 2.6 4.8 7 6 3.3 0.9 6.7 0.9 9.9 0 4.4-1.2 7-3.4 7-5.9q0 0 0 0c0-0.5-0.1-9.1-0.7-46.7h2.5l0.6 42.2c0.1 2.6 0.1 3.8 0 4.5 0.2 3.7-3.1 6.8-8.7 8.3q-2.8 0.7-5.6 0.7z"/>
							</g>
						</g>
					</g>
					<g id="&lt;Group&gt;">
						<g id="&lt;Group&gt;">
							<path id="&lt;Path&gt;" class="s1" d="m332.8 624.2l-14.2-75.1 2.4-0.5 14.3 75.1z"/>
						</g>
						<g id="&lt;Group&gt;">
							<path id="&lt;Path&gt;" class="s1" d="m347 693.5q-0.2 0-0.5-0.1c-0.3-0.2-0.6-0.5-0.7-0.9l-6.7-35.1 2.5-0.5 6.3 33.4 7.6-4.4 1.2 2.2-9 5.2q-0.3 0.2-0.7 0.2z"/>
						</g>
						<g id="&lt;Group&gt;">
							<path id="&lt;Path&gt;" class="s1" d="m435.3 642.6l-1.3-2.2 112.7-65.3-27.1-142.5 2.5-0.5 27.2 143.4c0.1 0.5-0.1 1.1-0.6 1.3z"/>
						</g>
						<g id="&lt;Group&gt;">
							<g id="&lt;Group&gt;">
								<g id="&lt;Group&gt;">
									<g id="&lt;Group&gt;">
										<path id="&lt;Path&gt;" class="s1" d="m345.4 589.9q-0.1 0-0.3-0.1c-0.2-0.1-0.4-0.3-0.4-0.5l-6.1-32.2c-0.1-0.4 0-0.7 0.3-0.8l52.6-30.5 0.7 1.3-52.1 30.2 5.9 30.7 35.1-20.4 0.7 1.3-36 20.9q-0.2 0.1-0.4 0.1z"/>
									</g>
								</g>
								<g id="&lt;Group&gt;">
									<g id="&lt;Group&gt;">
										<path id="&lt;Path&gt;" class="s1" d="m352.7 628q-0.2 0-0.3 0c-0.3-0.1-0.4-0.3-0.5-0.6l-6.1-32.2c-0.1-0.3 0.1-0.6 0.4-0.8l36.6-21.2 0.7 1.3-36.1 20.9 5.8 30.7 51.7-29.9 0.7 1.3-52.6 30.4q-0.1 0.1-0.3 0.1z"/>
									</g>
								</g>
								<g id="&lt;Group&gt;">
									<g id="&lt;Group&gt;">
										<path id="&lt;Path&gt;" class="s1" d="m359.2 665.5l-6.1-32.2c-0.1-0.3 0-0.6 0.3-0.8l52.6-30.4 0.7 1.3-52.1 30.2 6 31.7z"/>
									</g>
								</g>
							</g>
							<g id="&lt;Group&gt;">
								<g id="&lt;Group&gt;">
									<g id="&lt;Group&gt;">
										<path id="&lt;Path&gt;" class="s1" d="m436.5 537.2l-0.8-1.3 19.5-11.2-3.7-19.5 1.5-0.3 3.8 20c0 0.3-0.1 0.6-0.4 0.8z"/>
									</g>
									<g id="&lt;Group&gt;">
										<path id="&lt;Path&gt;" class="s1" d="m402.3 553.2l-5.7-29.8c-0.1-0.3 0.1-0.6 0.4-0.8l13-7.5 0.7 1.3-12.5 7.3 5.5 29.2z"/>
									</g>
								</g>
								<g id="&lt;Group&gt;">
									<g id="&lt;Group&gt;">
										<path id="&lt;Path&gt;" class="s1" d="m416.5 628l-5.4-28.3 1.5-0.3 5.4 28.3z"/>
									</g>
									<g id="&lt;Group&gt;">
										<path id="&lt;Path&gt;" class="s1" d="m425 628.5l-0.7-1.3 45.4-26.3-3-15.5 1.5-0.3 3.1 16.1c0 0.3-0.1 0.6-0.4 0.7z"/>
									</g>
								</g>
							</g>
							<g id="&lt;Group&gt;">
								<g id="&lt;Group&gt;">
									<g id="&lt;Group&gt;">
										<path id="&lt;Path&gt;" class="s1" d="m461.5 522.6q-0.1 0-0.3-0.1c-0.2-0.1-0.4-0.3-0.4-0.5l-4.8-25.3 1.4-0.3 4.7 24.3 51.1-29.7-5.8-30.7-45.3 26.3-0.8-1.3 46.3-26.8c0.2-0.1 0.4-0.1 0.7 0 0.2 0.1 0.3 0.3 0.4 0.5l6.1 32.3c0.1 0.3-0.1 0.6-0.3 0.7l-52.6 30.5q-0.2 0.1-0.4 0.1z"/>
									</g>
								</g>
								<g id="&lt;Group&gt;">
									<g id="&lt;Group&gt;">
										<path id="&lt;Path&gt;" class="s1" d="m500.6 542.4l-0.7-1.3 20.6-12-6-31.7 1.4-0.2 6.2 32.2c0 0.3-0.1 0.6-0.4 0.8z"/>
									</g>
								</g>
								<g id="&lt;Group&gt;">
									<g id="&lt;Group&gt;">
										<path id="&lt;Path&gt;" class="s1" d="m476.4 598.8l-0.8-1.3 52.1-30.2-5.8-30.7-23.9 13.8-0.7-1.3 24.8-14.3c0.2-0.1 0.4-0.2 0.7-0.1 0.2 0.1 0.3 0.3 0.4 0.6l6.1 32.2c0.1 0.3-0.1 0.6-0.3 0.8z"/>
									</g>
								</g>
							</g>
						</g>
						<g id="&lt;Group&gt;">
							<path id="&lt;Path&gt;" class="s1" d="m346.4 693.3l-7.7-5.2c-0.3-0.2-0.5-0.4-0.6-0.8l-4.6-24.3 2.5-0.5 4.5 23.8 7.2 4.9z"/>
						</g>
						<g id="&lt;Group&gt;">
							<path id="&lt;Path&gt;" class="s1" d="m325.1 618.2l-14-74.3 2.4-0.5 14 74.3z"/>
						</g>
						<g id="&lt;Group&gt;">
							<path id="&lt;Path&gt;" class="s1" d="m319.8 550.1q-0.4 0-0.7-0.2l-7.5-5.2c-0.4-0.3-0.6-0.7-0.6-1.1 0.1-0.4 0.3-0.8 0.7-1l90.5-52 1.3 2.2-88.9 50.9 5.2 3.6 81.9-47.4 1.2 2.2-82.5 47.8q-0.3 0.2-0.6 0.2z"/>
						</g>
						<g id="&lt;Group&gt;">
							<path id="&lt;Path&gt;" class="s1" d="m477.6 458.7l-1.3-2.1 42.1-24.3-4.5-2.8-41 23.5-1.3-2.1 41.7-23.9c0.4-0.2 0.9-0.2 1.3 0l6.9 4.3c0.4 0.2 0.6 0.6 0.6 1 0 0.5-0.3 0.9-0.7 1.1z"/>
						</g>
					</g>
				</g>
				<g id="&lt;Group&gt;">
					<g id="&lt;Group&gt;">
						<path id="&lt;Path&gt;" class="s2" d="m420.4 560.2q-0.2 0-0.3-0.1l-8.3-4.7c-0.2-0.1-0.4-0.5-0.3-0.8l10.1-47.1 1.5 0.3-10 46.6 7 4.1 52.3-101-7.2-4.2-16.9 9.8-0.8-1.3 17.3-10c0.3-0.1 0.5-0.1 0.8 0l8.2 4.7c0.3 0.2 0.5 0.7 0.3 1l-53 102.3q-0.2 0.3-0.5 0.4-0.1 0-0.2 0z"/>
					</g>
					<g id="&lt;Group&gt;">
						<path id="&lt;Path&gt;" class="s2" d="m412.4 514l-8.3-4.7c-0.3-0.2-0.4-0.5-0.3-0.9l14.8-64q0-0.3 0.3-0.5l31.1-18c0.3-0.1 0.6-0.1 0.8 0l8.2 4.8-0.7 1.3-7.9-4.5-30.5 17.5-14.5 63.2 7.7 4.5z"/>
					</g>
					<g id="&lt;Group&gt;">
						<path id="&lt;Path&gt;" class="s2" d="m420.4 559.5l12.5-57.8-20.2 11.6 14.8-64 31.1-18-13.8 42.4 28.6-16.5z"/>
					</g>
					<g id="&lt;Group&gt;">
						<path id="&lt;Path&gt;" class="s2" d="m426.7 449.9l-8.2-4.7 0.8-1.3 8.2 4.7z"/>
					</g>
				</g>
				<g id="&lt;Group&gt;">
					<g id="&lt;Group&gt;">
						<path id="&lt;Path&gt;" class="s1" d="m444.6 589.6c-4 0-7.5-0.5-10.4-1.1l0.5-2.5c6.4 1.4 16.3 2.1 27.3-2.2 9.9-3.9 16.6-10.5 19.7-14 15-17.2 17.3-43.4 17.7-49.5-6.1 0.1-32.3 1.3-50.2 15.6-3.7 2.9-10.5 9.3-14.8 19.1-4.6 10.4-4.5 20-3.6 26.3l-2.5 0.3c-0.9-6.6-1.1-16.7 3.8-27.6 4.6-10.3 11.7-17 15.5-20 20.7-16.6 51.8-16.2 53.1-16.2 0.7 0 1.2 0.6 1.2 1.3 0 1.3-0.8 32.2-18.4 52.3-3.2 3.8-10.2 10.6-20.6 14.7-6.6 2.6-12.9 3.5-18.3 3.5z"/>
					</g>
					<g id="&lt;Group&gt;">
						<path id="&lt;Path&gt;" class="s1" d="m411.9 591.9c-3.5 0-8.6-0.6-13.8-3.6-5.4-3.1-8.6-7.4-10.1-9.7-8-12.4-5.9-29.2-5.8-29.9 0.1-0.7 0.6-1.1 1.2-1.1 0.2 0 17.5 2 27.7 13 1.9 2 5.2 6.2 6.9 12.2 1.1 4.1 1.3 8.3 0.6 12.4l-2.5-0.4c0.7-3.8 0.5-7.6-0.5-11.3-1.5-5.5-4.6-9.4-6.3-11.2-7.9-8.5-20.7-11.3-24.8-12-0.3 4.1-0.6 17.2 5.6 26.9 1.3 2.1 4.3 6.1 9.3 8.9 4.9 2.9 9.8 3.4 13 3.3v2.5q-0.2 0-0.5 0z"/>
					</g>
					<g id="&lt;Group&gt;">
						<path id="&lt;Path&gt;" class="s2" d="m445.2 574.4c-0.2 0.2-24.7 15.1-24.7 41.2 0 0.8-0.7 1.5-1.5 1.5-0.8 0-1.5-0.7-1.5-1.5q0-3.5 0.5-6.6c1.1-16.4-6.5-23.8-6.6-23.9-0.6-0.6-0.6-1.5 0-2.1 0.6-0.6 1.5-0.7 2.1-0.1 0.3 0.3 5.5 5.3 7.1 16.1 6.8-17.2 22.2-26.7 23.1-27.2 0.7-0.4 1.6-0.2 2 0.6 0.5 0.7 0.2 1.6-0.5 2z"/>
					</g>
				</g>
			</g>
			<g id="&lt;Group&gt;">
				<g id="&lt;Group&gt;">
					<g id="&lt;Group&gt;">
						<g id="&lt;Group&gt;">
							<g id="&lt;Group&gt;">
								<path id="&lt;Path&gt;" class="s1" d="m251.2 741.3l-0.7-1.3 4.5-2.6v-18.8h1.5v19.3c0 0.3-0.2 0.5-0.4 0.6z"/>
							</g>
							<g id="&lt;Group&gt;">
								<path id="&lt;Path&gt;" class="s1" d="m261.2 739.1h-1.5v-17.3h1.5z"/>
							</g>
						</g>
						<g id="&lt;Group&gt;">
							<path id="&lt;Path&gt;" class="s1" d="m251.2 743.5c-2-3.4-4.6-6.2-7.3-8.2l0.9-1.2c2.9 2.1 5.5 5.1 7.7 8.6z"/>
						</g>
						<g id="&lt;Group&gt;">
							<path id="&lt;Path&gt;" class="s1" d="m248.7 767.6c-2 0-4.2-0.7-6.5-2-3.1-1.8-6.1-4.6-8.5-8.2l1.2-0.9c2.4 3.4 5.1 6.1 8.1 7.8 3.4 2 6.6 2.3 8.9 1 2.3-1.3 3.6-4.2 3.6-8.1 0-2.7-0.6-5.7-1.8-8.7l1.4-0.5c1.2 3.1 1.9 6.3 1.9 9.2 0 4.4-1.6 7.8-4.4 9.4q-1.7 1-3.9 1z"/>
						</g>
						<g id="&lt;Group&gt;">
							<path id="&lt;Path&gt;" class="s1" d="m230.6 751.9c-1.1-2.5-1.8-5-2.2-7.5l1.5-0.2c0.3 2.3 1 4.7 2.1 7.1z"/>
						</g>
						<g id="&lt;Group&gt;">
							<path id="&lt;Path&gt;" class="s1" d="m229.9 739.1l-1.5-0.2c0.7-4.5 3.3-7.4 7-7.8l0.2 1.5c-3 0.3-5.1 2.7-5.7 6.5z"/>
						</g>
						<g id="&lt;Group&gt;">
							<g id="&lt;Group&gt;">
								<g id="&lt;Group&gt;">
									<path id="&lt;Path&gt;" class="s1" d="m310 729.2l-0.7-1.3c5.9-3.4 12.7-5 20.2-4.6l-0.1 1.5c-7.1-0.4-13.7 1.1-19.4 4.4z"/>
								</g>
							</g>
							<g id="&lt;Group&gt;">
								<g id="&lt;Group&gt;">
									<g id="&lt;Group&gt;">
										<path id="&lt;Path&gt;" class="s1" d="m349.4 876.1h-1.5v-53.5h1.5z"/>
									</g>
								</g>
								<g id="&lt;Group&gt;">
									<g id="&lt;Group&gt;">
										<path id="&lt;Path&gt;" class="s1" d="m408.6 842.1l-42.2-24.4 0.8-1.3 42.2 24.4z"/>
									</g>
									<g id="&lt;Group&gt;">
										<path id="&lt;Path&gt;" class="s1" d="m337.6 801.1l-46.5-26.9 0.7-1.3 46.5 26.9z"/>
									</g>
								</g>
							</g>
							<g id="&lt;Group&gt;">
								<g id="&lt;Group&gt;">
									<g id="&lt;Group&gt;">
										<path id="&lt;Path&gt;" class="s1" d="m393.8 882.2l-32.7-56.4 1.3-0.7 32.7 56.4z"/>
									</g>
									<g id="&lt;Group&gt;">
										<path id="&lt;Path&gt;" class="s1" d="m338.3 786.6l-29.1-50.4 1.2-0.8 29.2 50.4z"/>
									</g>
								</g>
								<g id="&lt;Group&gt;">
									<g id="&lt;Group&gt;">
										<path id="&lt;Path&gt;" class="s1" d="m363 801.5l-0.7-1.3 28.3-16.2 0.8 1.3z"/>
									</g>
									<g id="&lt;Group&gt;">
										<path id="&lt;Path&gt;" class="s1" d="m309.1 832.3l-0.7-1.3 31.4-18 0.8 1.3z"/>
									</g>
								</g>
							</g>
							<g id="&lt;Group&gt;">
								<g id="&lt;Group&gt;">
									<path id="&lt;Compound Path&gt;" fill-rule="evenodd" class="s1" d="m378.4 894.1c-9.5 0-19.6-3.1-30.1-9.2-35.4-20.4-64.3-70.2-64.3-110.9 0-20.7 7.3-36.2 20.4-43.8 7.6-4.4 16.4-5.8 26.2-4.1l-0.4 2.4c-9.2-1.5-17.5-0.2-24.5 3.8-12.4 7.2-19.2 22-19.2 41.7 0 39.9 28.3 88.7 63 108.8 10.1 5.8 19.8 8.8 28.9 8.8 6.3 0 12.1-1.5 17.2-4.5 12.3-7.1 19.1-21.9 19.1-41.7 0-39.9-28.2-88.7-63-108.7-5.5-3.2-11-5.6-16.4-7l0.7-2.4c5.5 1.5 11.2 3.9 17 7.2 35.4 20.5 64.2 70.2 64.2 110.9 0 20.7-7.2 36.3-20.4 43.9-5.5 3.2-11.7 4.8-18.4 4.8zm-0.1-7c-8.1 0-17.1-2.7-26.6-8.2-33.5-19.3-60.7-66.4-60.7-104.9 0-18.1 6-31.5 16.9-37.8 6.7-3.9 15.1-4.9 24.3-2.8l-0.6 2.5c-8.5-2-16.3-1.2-22.5 2.4-10.1 5.9-15.6 18.5-15.6 35.7 0 37.7 26.7 83.8 59.5 102.8 15 8.6 28.9 10.2 39.1 4.3 10.1-5.8 15.7-18.5 15.7-35.7 0-37.7-26.7-83.8-59.5-102.7-3.9-2.2-7.7-4-11.5-5.3l0.9-2.4c3.8 1.4 7.8 3.2 11.8 5.5 33.5 19.4 60.8 66.4 60.8 104.9 0 18.2-6 31.6-16.9 37.9-4.5 2.6-9.5 3.8-15.1 3.8z"/>
								</g>
							</g>
							<g id="&lt;Group&gt;">
								<g id="&lt;Group&gt;">
									<path id="&lt;Path&gt;" class="s1" d="m361.3 839.4c-3.1 0-6.6-1-10.2-3.1-12.9-7.4-23.3-25.5-23.3-40.3 0-7 2.2-12.1 6.4-14.5 2.1-1.2 4.5-1.7 7.2-1.4l-0.1 1.5c-2.4-0.3-4.5 0.1-6.3 1.2-3.7 2.1-5.7 6.8-5.7 13.2 0 14.3 10.1 31.8 22.6 39 5.6 3.2 10.7 3.8 14.4 1.7 3.7-2.1 5.7-6.8 5.7-13.2 0-14.3-10.1-31.8-22.6-39q-1.8-1-3.5-1.7l0.6-1.4q1.8 0.7 3.6 1.8c12.9 7.4 23.4 25.5 23.4 40.3 0 6.9-2.3 12.1-6.5 14.5-1.7 1-3.6 1.4-5.7 1.4z"/>
								</g>
							</g>
						</g>
						<g id="&lt;Group&gt;">
							<g id="&lt;Group&gt;">
								<g id="&lt;Group&gt;">
									<g id="&lt;Group&gt;">
										<path id="&lt;Path&gt;" class="s1" d="m155.7 764h-1.5v-53.2h1.5z"/>
									</g>
									<g id="&lt;Group&gt;">
										<path id="&lt;Path&gt;" class="s1" d="m155.7 684h-1.5v-53.6h1.5z"/>
									</g>
								</g>
								<g id="&lt;Group&gt;">
									<g id="&lt;Group&gt;">
										<path id="&lt;Path&gt;" class="s1" d="m139.9 691.2l-45.6-26.3 0.7-1.3 45.7 26.3z"/>
									</g>
								</g>
							</g>
							<g id="&lt;Group&gt;">
								<g id="&lt;Group&gt;">
									<g id="&lt;Group&gt;">
										<path id="&lt;Path&gt;" class="s1" d="m143.8 682.4l-33.8-58.4 1.3-0.8 33.8 58.4z"/>
									</g>
									<g id="&lt;Group&gt;">
										<path id="&lt;Path&gt;" class="s1" d="m193.7 768.5l-33.1-57.1 1.3-0.8 33.1 57.2z"/>
									</g>
								</g>
								<g id="&lt;Group&gt;">
									<g id="&lt;Group&gt;">
										<path id="&lt;Path&gt;" class="s1" d="m113.2 720.9l-0.7-1.3 30.6-17.6 0.8 1.3z"/>
									</g>
								</g>
							</g>
							<g id="&lt;Group&gt;">
								<g id="&lt;Group&gt;">
									<path id="&lt;Compound Path&gt;" fill-rule="evenodd" class="s1" d="m180.2 779.9c-9.5 0-19.6-3.1-30.1-9.1-35.4-20.5-64.2-70.2-64.2-110.9 0-20.7 7.2-36.3 20.4-43.9 13.2-7.6 30.4-6.1 48.5 4.4 17.1 9.8 33.2 26.8 45.3 47.6l-2.2 1.3c-11.9-20.5-27.6-37.1-44.3-46.7-17.3-10-33.7-11.6-46.1-4.4-12.3 7.1-19.1 21.9-19.1 41.7 0 39.9 28.2 88.7 62.9 108.7 10.2 5.9 19.9 8.8 28.9 8.8 6.3 0 12.1-1.5 17.2-4.4 11.1-6.4 17.6-18.7 18.9-35.5l2.5 0.2c-1.3 17.6-8.3 30.6-20.1 37.4-5.5 3.2-11.7 4.8-18.5 4.8zm0-6.9c-8.1 0-17.2-2.8-26.6-8.2-33.5-19.4-60.8-66.4-60.8-104.9 0-18.1 6-31.6 16.9-37.9 4.4-2.5 9.5-3.8 15-3.8 8.3 0 17.2 2.7 26.6 8.2 16.2 9.3 31.4 25.3 42.8 45l-2.1 1.2c-11.3-19.3-26.1-34.9-41.9-44-8.9-5.2-17.7-7.9-25.4-7.9-5.1 0-9.7 1.2-13.7 3.5-10.1 5.8-15.7 18.5-15.7 35.7 0 37.7 26.7 83.8 59.5 102.7 15.1 8.7 29 10.3 39.1 4.4 9.8-5.7 15.2-17.2 15.6-33.4h2.5c-0.4 17.2-6.2 29.4-16.8 35.5-4.5 2.6-9.5 3.9-15 3.9zm38.8-41.7h-2.5c0-17.6-5.5-37.7-15.7-56.8l2.2-1.2c10.4 19.4 16 40 16 58zm-9.5-3.7c-0.7-15.7-6-33.5-14.8-50l2.2-1.2c9 16.9 14.3 35 15.1 51.1z"/>
								</g>
							</g>
							<g id="&lt;Group&gt;">
								<g id="&lt;Group&gt;">
									<path id="&lt;Compound Path&gt;" class="s1" d="m163.1 725.3c-3.1 0-6.5-1.1-10.2-3.2-12.8-7.4-23.3-25.5-23.3-40.3 0-6.9 2.3-12.1 6.4-14.5q2.6-1.4 5.8-1.4c3.1 0 6.5 1 10.2 3.1 6 3.5 11.7 9.4 16 16.6l-1.3 0.8c-4.2-7-9.7-12.7-15.5-16.1-5.5-3.2-10.7-3.8-14.4-1.7-3.7 2.2-5.7 6.8-5.7 13.2 0 14.3 10.1 31.8 22.6 39 5.6 3.3 10.7 3.9 14.4 1.7 3.2-1.8 5.1-5.4 5.6-10.5l1.5 0.2c-0.6 5.5-2.8 9.6-6.3 11.6-1.7 1-3.7 1.5-5.8 1.5zm10.6-18.6c-0.4-5.1-2-10.5-4.5-15.8l1.3-0.6c2.6 5.4 4.3 11 4.7 16.2z"/>
								</g>
							</g>
						</g>
						<g id="&lt;Group&gt;">
							<path id="&lt;Path&gt;" class="s1" d="m354.4 821.3c-1.3 0-2.7-0.4-4.1-1.3-4.9-2.8-8.8-9.6-8.8-15.1 0-3.1 1.2-5.4 3.3-6.3l0.6 1.4c-1.5 0.7-2.4 2.4-2.4 4.9 0 5.1 3.6 11.3 8 13.8 2 1.2 3.8 1.4 5.2 0.6 1.3-0.8 2.1-2.4 2.1-4.7 0-3.8-2.1-8.4-5.1-11.6l1-1c3.4 3.5 5.6 8.4 5.6 12.6 0 2.8-1 5-2.9 6q-1.1 0.7-2.5 0.7z"/>
						</g>
						<g id="&lt;Group&gt;">
							<path id="&lt;Path&gt;" class="s1" d="m353.2 803q-1.4-1.4-2.9-2.3-0.3-0.1-0.5-0.2l0.7-1.4q0.2 0.2 0.5 0.3 1.7 1 3.2 2.6z"/>
						</g>
						<g id="&lt;Group&gt;">
							<path id="&lt;Path&gt;" class="s1" d="m156.2 707.9c-1.3 0-2.7-0.4-4.1-1.3-4.9-2.7-8.8-9.5-8.8-15.1 0-2.8 1-5 2.8-6 1.9-1.1 4.2-0.9 6.7 0.6 1.7 0.9 3.3 2.3 4.6 4.1l-1.1 0.9c-1.3-1.6-2.7-2.9-4.2-3.7-2-1.2-3.9-1.4-5.2-0.6-1.3 0.7-2.1 2.4-2.1 4.7 0 5.1 3.6 11.3 8 13.8 1.7 1 3.4 1.3 4.6 0.9 1-0.3 1.7-1.1 2.2-2.1l1.4 0.5c-0.6 1.5-1.7 2.6-3.1 3q-0.8 0.3-1.7 0.3z"/>
						</g>
						<g id="&lt;Group&gt;">
							<g id="&lt;Group&gt;">
								<path id="&lt;Path&gt;" class="s1" d="m229.7 776.9h-1.5v-15.5c0-1.2 0.7-2.4 1.7-3.1l11-7c0.8-0.4 1-1.4 0.5-2.2-0.5-0.7-1.5-1-2.2-0.5l-11 7c-2 1.3-3.2 3.4-3.2 5.8v12.4h-1.5v-12.4c0-2.9 1.4-5.5 3.9-7.1l11-7c1.4-0.9 3.4-0.4 4.3 1 0.9 1.5 0.5 3.4-1 4.3l-11 7c-0.6 0.4-1 1.1-1 1.8z"/>
							</g>
						</g>
						<g id="&lt;Group&gt;">
							<path id="&lt;Compound Path&gt;" fill-rule="evenodd" class="s2" d="m213.3 791c-1.9 0-3.8-0.4-5.3-1.3l-2.9-1.7c-1.6-0.9-2.5-2.2-2.5-3.5 0-1.4 0.9-2.7 2.5-3.6l10-5.8c3-1.7 7.7-1.7 10.8 0l2.9 1.7c1.5 0.9 2.4 2.2 2.4 3.6 0 1.3-0.9 2.6-2.4 3.5l-10.1 5.8c-1.5 0.9-3.4 1.3-5.4 1.3zm-7.5-4.3l2.9 1.7c2.6 1.5 6.7 1.5 9.3 0l10-5.8c1.1-0.6 1.7-1.4 1.7-2.2 0-0.9-0.6-1.7-1.7-2.3l-2.9-1.7c-2.5-1.4-6.7-1.4-9.3 0l-10 5.8c-1.1 0.7-1.7 1.5-1.7 2.3 0 0.8 0.6 1.6 1.7 2.2z"/>
						</g>
						<g id="&lt;Group&gt;">
							<path id="&lt;Compound Path&gt;" fill-rule="evenodd" class="s2" d="m262.4 716.9c-1.9 0-3.9-0.5-5.4-1.3l-2.9-1.7c-1.6-0.9-2.4-2.2-2.4-3.6 0-1.3 0.8-2.6 2.4-3.5l10-5.8c3.1-1.7 7.8-1.7 10.8 0l2.9 1.7c1.6 0.9 2.5 2.2 2.5 3.5 0 1.4-0.9 2.7-2.5 3.6l-10 5.8c-1.5 0.8-3.5 1.3-5.4 1.3zm-7.5-4.3l2.9 1.7c2.5 1.4 6.7 1.4 9.2 0l10.1-5.8c1.1-0.7 1.7-1.5 1.7-2.3 0-0.8-0.6-1.6-1.7-2.2l-2.9-1.7c-2.6-1.5-6.7-1.5-9.3 0l-10 5.8c-1.1 0.6-1.7 1.4-1.7 2.2 0 0.9 0.6 1.7 1.7 2.3z"/>
						</g>
						<g id="&lt;Group&gt;">
							<g id="&lt;Group&gt;">
								<path id="&lt;Path&gt;" class="s2" d="m292.1 670.7c-0.8 0-1.7-0.3-2.4-0.7l-14.7-8c-2.4-1.4-3.3-4.5-2-7 1.4-2.4 4.5-3.3 6.9-1.9l14.7 8c1 0.6 1.8 1.5 2.3 2.7l-1.4 0.5c-0.3-0.8-0.9-1.5-1.7-1.9l-14.6-8c-1.7-1-3.9-0.4-4.9 1.4-0.9 1.7-0.3 3.9 1.4 4.8l14.7 8.1c0.5 0.3 1.1 0.5 1.7 0.5z"/>
							</g>
						</g>
						<g id="&lt;Group&gt;">
							<g id="&lt;Group&gt;">
								<path id="&lt;Path&gt;" class="s2" d="m339.3 641.7c-0.9 0-1.7-0.3-2.4-0.7l-14.7-8c-2.4-1.4-3.3-4.5-2-6.9 1.4-2.5 4.5-3.4 6.9-2l14.7 8c0.9 0.6 1.7 1.4 2.2 2.5l-1.4 0.5c-0.3-0.7-0.9-1.3-1.6-1.7l-14.6-8c-1.7-1-3.9-0.3-4.9 1.4-0.9 1.7-0.3 3.9 1.4 4.8l14.7 8.1c0.5 0.3 1.1 0.5 1.7 0.5z"/>
							</g>
						</g>
						<g id="&lt;Group&gt;">
							<path id="&lt;Path&gt;" class="s2" d="m234.4 620.8q-0.5 0-0.9 0-0.1 0-0.1 0l-19-3.9c-5.3-1.1-10.3-3-14.3-5.3l-6.8-3.9c-3.2-1.9-4.9-4.4-4.8-7.1 0.1-2.1 0-8.3 0-8.4h1.5c0 0.3 0.1 6.3 0 8.5-0.1 2.1 1.4 4.1 4.1 5.7l6.8 3.9c3.9 2.3 8.7 4 13.8 5.1l18.9 3.9c3.9 0.2 7.6-1 9.4-3q1.2-1.2 1-2.6 0-0.1 0-0.2v-6.7h1.5v6.7c0.2 1.3-0.3 2.7-1.4 3.8-1.9 2.2-5.6 3.5-9.7 3.5z"/>
						</g>
						<g id="&lt;Group&gt;">
							<path id="&lt;Path&gt;" class="s2" d="m222.3 581.5l7 4c4.1 2.4 7.3 5.2 9.2 8.4l7 11.2c0.5 3.8-5 7-11.6 6.7l-19.5-4c-5.4-1.1-10.4-3-14.5-5.3l-7-4.1c-6.1-3.5-6.1-9.2 0-12.8l7.3-4.1c6.1-3.6 16-3.6 22.1 0z"/>
						</g>
						<g id="&lt;Group&gt;">
							<path id="&lt;Compound Path&gt;" fill-rule="evenodd" class="s1" d="m349.6 812.5c-1.6 0-3-1.1-3.3-2.7l-17.8-86.5q0-0.3 0-0.6l-81.2 28.5c-0.7 1.6-2.1 2.8-3.8 3.1-1.3 0.2-2.5 0-3.6-0.7l0.8-1.3c0.8 0.5 1.6 0.7 2.5 0.5 1.3-0.2 2.4-1.1 2.8-2.4 0.1-0.2 0.2-0.4 0.5-0.5l82.7-29c0.3-0.1 0.6 0 0.8 0.2 0.2 0.2 0.3 0.5 0.1 0.8q-0.2 0.6-0.1 1.1l17.8 86.5c0.2 0.9 0.9 1.5 1.8 1.5q0.2 0 0.4 0c0.5-0.1 0.9-0.4 1.2-0.8 0.2-0.5 0.3-0.9 0.2-1.4l-17.4-84.6c0-0.3 0.1-0.6 0.4-0.8l5-2.9c0.2-0.1 0.5-0.2 0.7-0.1 0.2 0.1 0.4 0.4 0.4 0.6l0.8 4.5-1.5 0.2-0.6-3.4-3.6 2.2 17.3 84c0.2 0.8 0 1.7-0.5 2.5-0.5 0.7-1.2 1.2-2.1 1.4q-0.3 0.1-0.7 0.1zm6.9-5.7v-1.5q0.1 0 0.3 0c1-0.2 1.7-1.2 1.5-2.2l-9.6-55.5 1.5-0.3 9.6 55.6c0.3 1.8-0.9 3.5-2.7 3.9l-0.2-0.8 0.2 0.8q-0.3 0-0.6 0zm-3.6-4.6l-10.1-58.5 1.5-0.2 10.1 58.5zm-117-53l-85.2-50c-1-0.6-1.6-1.8-1.6-3 0-1.2 0.7-2.3 1.8-2.9l70.7-36.9-6.5-37.7 1.5-0.3 6.6 38.3c0 0.4-0.2 0.7-0.4 0.8l-71.2 37.2c-0.6 0.3-1 0.9-1 1.6 0 0.6 0.3 1.2 0.9 1.6l85.1 50zm10.4-3.2q-0.2 0-0.3-0.2-0.3-0.1-0.4-0.5l-13.9-81.5c-0.1-0.3 0-0.6 0.3-0.8 0.2-0.1 0.5-0.2 0.8 0l92.6 53.9c0.3 0.2 0.4 0.5 0.4 0.8 0 0.3-0.2 0.5-0.5 0.6l-78.7 27.6q-0.1 0.1-0.3 0.1zm-12.9-80.9l13.5 79.1 76.4-26.8zm3.7 78.7q-0.2 0-0.4-0.1l-79.3-46.6c-0.2-0.1-0.4-0.4-0.4-0.6 0.1-0.3 0.2-0.6 0.4-0.7l65.6-34.2c0.2-0.1 0.5-0.1 0.7 0 0.2 0.1 0.3 0.3 0.4 0.6l13.8 80.7c0 0.3-0.1 0.6-0.3 0.8q-0.2 0.1-0.5 0.1zm-77.8-47.3l76.8 45.1-13.3-78.2zm186 31l-1.9-10.8c-0.1-0.6-0.4-1.2-1-1.4-0.6-0.3-1.2-0.2-1.7 0.1l-3.1 1.8c-0.2 0.1-0.4 0.1-0.7 0-0.2-0.1-0.3-0.3-0.4-0.5l-9.9-58c0-0.3 0.1-0.6 0.4-0.7l18.3-10.6c1.6-1 2.6-2.6 2.6-4.5 0-1.8-0.9-3.4-2.4-4.4l-1.9-1.4c-0.4-0.3-0.9-0.4-1.4-0.4-0.5 0.1-0.9 0.3-1.2 0.7-0.6 0.8-0.5 2 0.3 2.6l1.9 1.5q0.1 0.1 0.3 0.1c0.4 0.3 0.7 0.8 0.7 1.3 0 0.5-0.3 1-0.7 1.3l-38.8 22.4c-2.1 1.2-4.7 1.2-6.9 0l-1.7-0.8c-0.4-0.3-0.9-0.3-1.4-0.1-0.5 0.1-0.8 0.4-1.1 0.9-0.4 0.9-0.1 2 0.8 2.5l1.7 0.8c3.2 1.8 7.3 1.7 10.4-0.1l15.7-9.1c0.2-0.1 0.5-0.1 0.7 0 0.2 0.1 0.4 0.3 0.4 0.6l9.2 53.8c0.1 0.4-0.1 0.7-0.5 0.8l-0.4 0.2q-0.3 0.1-0.6-0.1l-100.2-58.3c-0.2-0.2-0.4-0.4-0.4-0.6l-6.2-36.2 1.5-0.2 6.1 35.8 99 57.7-8.8-51.6-14.7 8.5c-3.6 2.1-8.3 2.1-11.9 0.1l-1.6-0.8c-1.7-0.8-2.3-2.9-1.5-4.5 0.4-0.8 1.1-1.4 1.9-1.7 0.9-0.2 1.8-0.2 2.6 0.2l1.7 0.9c1.7 0.9 3.8 0.9 5.4 0l38.8-22.4c-0.1 0-0.2-0.1-0.4-0.2l-1.9-1.5c-1.4-1.1-1.7-3.2-0.6-4.7 0.6-0.7 1.4-1.2 2.3-1.3 0.8-0.1 1.7 0.2 2.4 0.7l1.8 1.4c1.9 1.2 3.1 3.3 3.1 5.6 0 2.4-1.2 4.6-3.3 5.8l-17.9 10.3 9.6 56.3 2.1-1.2c1-0.6 2.1-0.6 3.1-0.2 1 0.5 1.7 1.4 1.9 2.5l1.9 10.9z"/>
						</g>
					</g>
				</g>
				<g id="&lt;Group&gt;">
					<path id="&lt;Path&gt;" class="s2" d="m375.8 702.5c-4.1 0-7.8-0.5-10.8-1.2l0.4-1.4c6.6 1.4 17 2.2 28.4-2.4 10.1-4.1 16.8-10.8 19.9-14.4 15.8-18.4 17.5-46 17.6-50.9-4.9 0.1-32.7 1.2-51.3 16.3-3.7 3-10.5 9.5-14.9 19.5-4.8 11.2-4.4 21.4-3.2 28.1l-1.4 0.2c-1.3-6.8-1.7-17.4 3.3-28.9 4.4-10.3 11.5-17 15.3-20.1 20.7-16.9 52.7-16.6 53-16.6 0.4 0.1 0.7 0.3 0.8 0.7 0 0.3-0.5 32.3-18 52.7-3.2 3.7-10.1 10.6-20.5 14.8-6.7 2.7-13.1 3.6-18.6 3.6z"/>
				</g>
				<g id="&lt;Group&gt;">
					<g id="&lt;Group&gt;">
						<path id="&lt;Path&gt;" class="s1" d="m351.8 724.2l-1.4-0.4c8.3-30.8 29.1-43.7 29.3-43.9l0.7 1.3c-0.2 0.2-20.4 12.7-28.6 43z"/>
					</g>
				</g>
			</g>
			<g id="&lt;Group&gt;">
				<g id="&lt;Group&gt;">
					<g id="&lt;Group&gt;">
						<g id="&lt;Group&gt;">
							<path id="&lt;Path&gt;" class="s2" d="m540.2 742.7c14.9 14.3 28.9 35.2 43.7 57.2q0 0.1 0.1 0.2v4.3c-0.8-1.2-1.5-2.3-2.1-3.1-14.7-22-28.6-42.8-43.3-56.8z"/>
						</g>
					</g>
					<g id="&lt;Group&gt;">
						<g id="&lt;Group&gt;">
							<path id="&lt;Path&gt;" class="s2" d="m563.9 730.6c4 7.3 1.8 28.9-4.2 43-14.5 29.2-60.4 34.4-69.6 34.5 4.8-5.1 2.2-52.9 21.6-71.8 7.8-7.3 22.9-12 30-13.1-3.1 5.6-2.3 15.4-4.7 20.5 6.4-2.9 20-6.7 26.9-13.1z"/>
						</g>
					</g>
				</g>
				<g id="&lt;Group&gt;">
					<g id="&lt;Group&gt;">
						<g id="&lt;Group&gt;">
							<path id="&lt;Path&gt;" class="s1" d="m664.3 892.5c-22 0-44-4.8-60.7-14.5-16.5-9.5-25.5-22.2-25.5-35.7 0-3.8 0.3-13.4 0.3-13.5l2.5 0.1c0 0.1-0.3 9.6-0.3 13.4 0 12.6 8.6 24.5 24.3 33.6 32.7 18.9 86 18.9 118.8 0 15.7-9.1 24.3-21 24.3-33.6 0-9.5-0.3-11-0.4-11.2 0.1 0.2 0.4 0.7 1 0.8l0.2-1.2-1.2-0.6 1.5-0.7c1.1 0.3 1.4 0.4 1.4 12.9 0 13.5-9.1 26.2-25.5 35.7-16.8 9.7-38.7 14.5-60.7 14.5z"/>
						</g>
						<g id="&lt;Group&gt;">
							<path id="&lt;Path&gt;" class="s1" d="m663.8 879.9c-21.9 0-43.9-4.8-60.6-14.5-23.2-13.3-31-34.5-19.9-53.8l2.2 1.3c-10.3 18-2.9 37.8 18.9 50.4 32.8 18.9 86.1 18.9 118.9 0 12.9-7.5 21-16.9 23.5-27.2 1.8-7.8 0.2-15.9-4.6-23.2l2-1.4c5.3 8 7 16.6 5 25.1-2.6 11.1-11.1 21-24.7 28.8-16.7 9.7-38.7 14.5-60.7 14.5z"/>
						</g>
						<g id="&lt;Group&gt;">
							<path id="&lt;Path&gt;" class="s1" d="m753.2 735.1l-2.5-0.3c1.8-16 3.6-31.9 5.3-45.7l2.4 0.3c-1.6 13.8-3.4 29.7-5.2 45.7z"/>
						</g>
						<g id="&lt;Group&gt;">
							<path id="&lt;Path&gt;" class="s1" d="m663.8 872.5c-20.3 0-40.6-4.5-56.1-13.4-15.2-8.8-23.6-20.6-23.6-33.1 0-6-4.6-49.2-13.7-128.4l2.4-0.3c9.2 79.4 13.8 122.6 13.8 128.7 0 11.6 7.9 22.6 22.4 30.9 30.2 17.5 79.4 17.5 109.7 0 14.4-8.3 22.4-19.3 22.4-30.9 0-4.5 2.8-32 8.5-81.8l2.5 0.3c-5.6 49-8.5 77.1-8.5 81.5 0 12.5-8.4 24.3-23.6 33.1-15.5 8.9-35.8 13.4-56.2 13.4z"/>
						</g>
						<g id="&lt;Group&gt;">
							<g id="&lt;Group&gt;">
								<path id="&lt;Path&gt;" class="s1" d="m663.8 861.8c-3.4 0-6.4-4.8-8.6-13.8-2.2-8.6-3.3-20.1-3.3-32.2 0-4.8-0.5-37.7-1.5-95.1l1.5-0.1c0.7 40.1 1.5 89.2 1.5 95.2 0 12 1.1 23.3 3.2 31.8 2 8 4.7 12.7 7.2 12.7 2.6 0 5.3-4.7 7.2-12.7 2.2-8.5 3.3-19.8 3.3-31.8 0-4.8 0.5-36.6 1.4-94.6h1.5c-0.9 58-1.4 89.8-1.4 94.6 0 12.1-1.2 23.6-3.3 32.2-2.2 9-5.2 13.8-8.7 13.8z"/>
							</g>
							<g id="&lt;Group&gt;">
								<path id="&lt;Path&gt;" class="s1" d="m731.1 739.2l-1.5-0.1q0 0 2.8-32.3l1.5 0.1z"/>
							</g>
							<g id="&lt;Group&gt;">
								<path id="&lt;Path&gt;" class="s1" d="m710.8 851.3q-0.1 0-0.2 0c-3.9-0.2-6.9-5.3-8.2-14-1.2-8.1-1.2-16.6-1.1-27.2q0-2.5 0-5.2c0-3.5 0.9-21.9 2.8-54.7l1.5 0.1c-1.9 32.8-2.8 51.2-2.8 54.6q0 2.7 0 5.2c-0.1 10.6-0.1 18.9 1.1 27 1.3 9.2 4.4 12.6 6.8 12.7q0.1 0 0.1 0c3.2 0 6.5-5 8.4-12.8 2.2-8.8 3.3-19.3 4.6-32.1 0.3-3.7 2-23.1 5.2-59.4l1.5 0.1c-3.2 36.3-4.9 55.7-5.2 59.4-1.3 12.9-2.4 23.4-4.6 32.3-2.2 8.8-5.9 14-9.9 14z"/>
							</g>
							<g id="&lt;Group&gt;">
								<path id="&lt;Path&gt;" class="s1" d="m706.4 735.7l-1.5-0.1c0.4-6.3 0.7-12.8 1.1-19.3l1.5 0.1c-0.4 6.5-0.7 12.9-1.1 19.3z"/>
							</g>
							<g id="&lt;Group&gt;">
								<path id="&lt;Path&gt;" class="s1" d="m616.8 851.3c-4 0-7.6-5.2-9.8-14-2.2-8.9-3.3-19.4-4.6-32.3-0.6-6.1-5-57-8.7-98.6l1.5-0.1c5.2 59.6 8.2 93.7 8.7 98.6 1.2 12.8 2.4 23.3 4.5 32.1 2 7.8 5.3 12.8 8.4 12.8q0.1 0 0.2 0c2.4-0.1 5.4-3.5 6.8-12.7 1.2-8.1 1.1-16.4 1.1-27q0-2.5 0-5.2c0-4.5-1.6-34.3-4.7-88.5l1.5-0.1c3.1 54.2 4.7 84.1 4.7 88.6q0 2.7 0 5.2c0 10.6 0.1 19-1.1 27.2-1.3 8.7-4.3 13.8-8.2 14q-0.2 0-0.3 0z"/>
							</g>
						</g>
						<g id="&lt;Group&gt;">
							<path id="&lt;Compound Path&gt;" fill-rule="evenodd" class="s1" d="m664.5 721.9c-27.7 0-55.4-6-76.4-18.2-20.6-11.9-32-27.8-32-44.8 0-5.8 0-9.9 0.1-12.3 0-2.7 0-3.3 1.2-3.4 0.7-0.1 1.3 0.5 1.3 1.1l-1.1 0.2 1.1 0.2c0 0.2-0.1 2-0.1 14.2 0 16 10.9 31.2 30.7 42.6 41.5 24 108.9 24 150.3 0 19.8-11.4 30.7-26.6 30.7-42.6l1.3-6.2 1.2 6.2c0 17-11.3 32.9-32 44.8-21 12.2-48.7 18.2-76.3 18.2zm108.3-75h-0.1l0.1-0.4zm-2.4 0h-0.1v-0.4z"/>
						</g>
						<g id="&lt;Group&gt;">
							<path id="&lt;Compound Path&gt;" fill-rule="evenodd" class="s1" d="m664.4 709c-27.7 0-55.3-6.1-76.4-18.2-20.7-11.9-32-27.8-32-44.8 0-17 11.3-32.9 32-44.8 42.1-24.3 110.7-24.3 152.8 0 20.7 11.9 32 27.8 32 44.8 0 17-11.3 32.9-32 44.8-21.1 12.1-48.7 18.2-76.4 18.2zm-75.2-105.6c-19.8 11.4-30.7 26.6-30.7 42.6 0 16 10.9 31.2 30.7 42.6 41.5 23.9 108.9 23.9 150.4 0 19.8-11.4 30.7-26.6 30.7-42.6 0-16-10.9-31.2-30.7-42.6-41.5-23.9-108.9-23.9-150.4 0z"/>
						</g>
						<g id="&lt;Group&gt;">
							<path id="&lt;Compound Path&gt;" fill-rule="evenodd" class="s1" d="m663.7 697c-23.2 0-46.4-4.9-64-14.8-17.3-9.6-26.8-22.5-26.8-36.2 0-13.7 9.5-26.6 26.8-36.2 35.3-19.8 92.8-19.8 128.1 0 17.3 9.6 26.8 22.5 26.8 36.2 0 13.7-9.5 26.6-26.8 36.2-17.7 9.9-40.9 14.8-64.1 14.8zm0-100.6c-22.9 0-45.8 4.9-63.3 14.7-16.8 9.3-26 21.7-26 34.9 0 13.2 9.2 25.6 26 34.9 34.9 19.5 91.8 19.5 126.7 0 16.7-9.3 26-21.7 26-34.9 0-13.2-9.3-25.6-26-34.9-17.5-9.8-40.4-14.7-63.4-14.7z"/>
						</g>
						<g id="&lt;Group&gt;">
							<g id="&lt;Group&gt;">
								<path id="&lt;Compound Path&gt;" fill-rule="evenodd" class="s2" d="m694.5 671.6c-1.3 0-2.6-0.4-3.8-1l-0.4-0.3c-2.7-1.6-4.8-3.9-6.1-6.8l-0.3-0.7c-4.9-11-12.9-20.4-21.4-25.4l-11-6.2c-8.3-4.8-16.1-4.6-20.7 0.5q-0.1 0.1-0.1 0.1c-0.3 0.3-3.2 2.4-5.3 1.2l-0.5-0.3q-0.6-0.3-1.2-0.7c-0.9-0.5-1.1-1.2-1.2-1.6-0.1-1 0.7-1.9 0.8-2l3.3-3.6c2.8-3.1 13.7-9.1 15.5-9.9 5.6-2.6 12.7-1.6 20.2 2.7l14.5 8.2c9.8 5.7 19 16.5 24.5 29l3.5 7.9c0.8 1.9 0.1 4-1.6 5q0 0-5 2.9c-1.1 0.6-2.4 1-3.7 1zm-54.4-45.4c3.7 0 7.9 1.3 12.2 3.7l10.9 6.2c8.9 5.1 17.1 14.8 22 26.1l0.4 0.7c1.1 2.6 3 4.7 5.4 6.1l0.5 0.3c1.8 1 4.1 1 6 0l5-2.9c1-0.6 1.4-1.9 0.9-3l-3.5-8c-5.4-12.2-14.3-22.8-23.8-28.3l-14.6-8.2c-7-4.1-13.7-5-18.8-2.7-1.7 0.8-12.4 6.7-15 9.6l-3.3 3.6c-0.1 0.2-0.4 0.5-0.4 0.8q0.1 0.3 0.5 0.5 0.5 0.4 1.2 0.7l0.5 0.3c1 0.6 2.9-0.5 3.5-1 2.7-3 6.3-4.5 10.4-4.5z"/>
							</g>
							<g id="&lt;Group&gt;">
								<path id="&lt;Path&gt;" class="s2" d="m694 668.6c0.1 0.5 0.4 2.3 0.1 2.2-0.6-0.1-1.4 0-3-0.9l-0.4-0.3c-2.6-1.4-4.6-3.7-5.8-6.4l-0.4-0.8c-4.8-11-13-20.6-21.6-25.6l-11-6.2c-8.7-5-16.8-4.8-21.7 0.6q-2.7 2.1-4.4 1.1c-0.6-0.3-1.2-0.6-1.7-1q-1.6-1-0.3-2.4l3.3-3.7c0.6-0.6 1.6-1.4 2.9-2.3q0.8-0.5 1.7-0.9c4.4-1.8 8.9-3 14.3-1.1 5.5 1.9 27.4 13.4 31.3 18.3 4 4.9 9.9 14.5 11.8 17.8 3.8 6.9 4.1 8.6 4.9 11.6z"/>
							</g>
						</g>
					</g>
					<g id="&lt;Group&gt;">
						<path id="&lt;Path&gt;" class="s1" d="m702 752.2c-0.8 0-1.5-0.2-2.2-0.5-1.1-0.6-1.8-1.6-2.2-2.8-0.3-1.1-0.2-2.4 0.4-3.4l3.3-6c3.1-5.6 10-8 16-5.7l9.4 3.6c6.3 2.7 15.3 2.4 20.8-0.7l15.7-8.8c2.2-1.3 3.1-2.6 3.2-3.4 0-0.8-0.7-1.9-2.1-2.9l-3.6-2.9c-0.8-0.7-2-1-3.1-0.8-1.4 0.3-2.3 0.7-2.7 1.4l-2.2-1.2c1.1-1.8 3.1-2.4 4.4-2.6 1.9-0.4 3.8 0.1 5.2 1.2l3.5 2.9c2.1 1.6 3.2 3.3 3.1 5-0.2 2-1.8 3.9-4.5 5.5l-15.7 8.8c-6.1 3.4-16 3.8-22.9 0.9l-9.4-3.7c-4.9-1.9-10.4 0.1-12.9 4.6l-3.3 6c-0.3 0.4-0.3 1-0.2 1.5 0.2 0.6 0.5 1 1 1.3 1 0.5 2.3 0.1 2.8-0.8l3.3-6c1.5-2.7 4.9-3.8 7.8-2.7l9.3 3.6c8.1 3.4 19.3 3 26.5-1.1l15.7-8.8c4-2.2 6.4-5.4 6.6-8.8 0.2-3.1-1.4-6.2-4.6-8.6l-3.5-2.8c-2.1-1.7-5.5-3.4-9.9-1.8l-0.9-2.4c4.3-1.5 8.7-0.7 12.4 2.3l3.4 2.8c3.9 2.8 5.9 6.6 5.6 10.7-0.3 4.3-3.1 8.1-7.9 10.8l-15.6 8.8c-7.9 4.4-20 4.9-28.7 1.2l-9.3-3.6c-1.8-0.7-3.8 0-4.7 1.6l-3.3 6c-0.8 1.4-2.3 2.3-4 2.3z"/>
					</g>
				</g>
			</g>
			<g id="&lt;Group&gt;">
				<g id="&lt;Group&gt;">
					<g id="&lt;Group&gt;">
						<path id="&lt;Path&gt;" class="s1" d="m810.3 740.2c-2.4 0-4.9-0.4-7.3-1.1-6.2-1.8-9.9-5.3-9.9-9.5 0-2.3-0.1-13.8-0.1-13.9h2.5c0 0.1 0.1 11.6 0.1 13.9 0 2.9 3.1 5.7 8.1 7.1 4.3 1.3 8.9 1.3 13.2 0 5-1.4 8.1-4.2 8.1-7.1 0-2.3-0.4-15.1-0.4-15.2l2.5-0.1c0 0.5 0.4 13 0.4 15.3 0 4.1-3.7 7.7-9.9 9.5-2.4 0.7-4.8 1.1-7.3 1.1z"/>
					</g>
					<g id="&lt;Group&gt;">
						<path id="&lt;Path&gt;" class="s1" d="m810 724.7c-4.3 0-8.6-0.9-11.9-2.8-3.4-2-5.3-4.7-5.3-7.6 0-2.9 1.9-5.6 5.3-7.5l1.3 2.1c-2.6 1.5-4.1 3.4-4.1 5.4 0 2 1.5 3.9 4.1 5.4 5.8 3.4 15.3 3.4 21.2 0 2.6-1.5 4-3.4 4-5.4 0-2-1.6-3.9-4.4-5.4l1.1-2.2c3.7 2 5.8 4.7 5.8 7.6 0.1 2.9-1.8 5.6-5.3 7.6-3.2 1.9-7.5 2.8-11.8 2.8z"/>
					</g>
					<g id="&lt;Group&gt;">
						<path id="&lt;Path&gt;" class="s1" d="m809.7 719.1q-2.3 0-4.5-0.6c-4.5-1.2-7.3-3.7-7.3-6.6v-47.5h1.5v47.5c0 2.1 2.4 4.1 6.2 5.1 2.7 0.7 5.5 0.7 8.2 0 3.8-1 6.2-3 6.2-5.1v-35.2h1.5v35.2c0 2.9-2.7 5.4-7.3 6.6q-2.2 0.6-4.5 0.6z"/>
					</g>
				</g>
				<g id="&lt;Group&gt;">
					<path id="&lt;Path&gt;" class="s1" d="m896.1 717.2q-0.3 0-0.6-0.2l-119.5-69 1.3-2.1 117.6 67.8v-157.2l-182.6-105.4v135.3h-2.5v-137.4c0-0.5 0.2-0.9 0.6-1.1 0.4-0.2 0.9-0.2 1.3 0l185.1 106.8c0.3 0.2 0.6 0.6 0.6 1.1v160.1c0 0.5-0.3 0.9-0.6 1.1q-0.3 0.2-0.7 0.2z"/>
				</g>
				<g id="&lt;Group&gt;">
					<path id="&lt;Path&gt;" class="s1" d="m896.8 717l-1.3-2.2 11.6-6.9v-159.9h2.5v160.6c0 0.5-0.2 0.9-0.6 1.1z"/>
				</g>
				<g id="&lt;Group&gt;">
					<path id="&lt;Path&gt;" class="s1" d="m896.5 556.9l-1.3-2.2 11.2-6.4-182.3-105.2-12.4 7.2-1.3-2.2 13.1-7.5c0.4-0.2 0.8-0.2 1.2 0l184.8 106.6c0.4 0.2 0.6 0.6 0.6 1.1 0 0.4-0.2 0.8-0.6 1.1z"/>
				</g>
				<g id="&lt;Group&gt;">
					<g id="&lt;Group&gt;">
						<path id="&lt;Path&gt;" class="s2" d="m845.5 670.4q-0.2 0-0.4-0.1l-73.9-42.1 0.7-1.3 73.3 41.7 19-26.9-43.7-110.1-33.4-19.4-44.4 64.5 11.8 30.3-1.4 0.5-11.9-30.6c-0.1-0.3-0.1-0.5 0.1-0.7l44.9-65.4c0.2-0.3 0.7-0.4 1-0.2l34.3 19.8q0.2 0.1 0.3 0.4l44 110.7c0 0.3 0 0.5-0.1 0.7l-19.6 27.9c-0.2 0.2-0.4 0.3-0.6 0.3z"/>
					</g>
					<g id="&lt;Group&gt;">
						<g id="&lt;Group&gt;">
							<path id="&lt;Path&gt;" class="s2" d="m803.4 570.1l4.2-0.4-5.9-15-12.4 17.6-18.1-22.4 18.5-26.1 24.1 13.9 11.8 30.4 4.1-0.4-5.5 20.8z"/>
						</g>
						<g id="&lt;Group&gt;">
							<path id="&lt;Path&gt;" class="s2" d="m798.1 609.9v24q-36.8-21.3-36.8-21.3l-12-30.7 11.6-16.3-4-5.1 20.7 5.6 5.7 27.1-4.3-5.2-5.5 7.7z"/>
						</g>
						<g id="&lt;Group&gt;">
							<path id="&lt;Path&gt;" class="s2" d="m855.3 642.1l-11.8 17-22.1-13.2v5.4l-16.4-26.2 15.1-8.9v5.6l11 6.3-12.4-31.7 18-1.7q18.6 47.4 18.6 47.4 0 0 0 0z"/>
						</g>
					</g>
				</g>
			</g>
			<g id="&lt;Group&gt;">
				<path id="&lt;Compound Path&gt;" fill-rule="evenodd" class="s1" d="m496.5 244.3c-0.3 0-0.6-0.1-0.8-0.3l-9.4-9.4c-0.2-0.2-0.3-0.5-0.3-0.9 0-0.3 0.1-0.6 0.3-0.8l9.4-9.4c0.4-0.5 1.2-0.5 1.7 0l9.4 9.4c0.2 0.2 0.3 0.5 0.3 0.8 0 0.4-0.1 0.7-0.3 0.9l-9.4 9.4c-0.2 0.2-0.5 0.3-0.9 0.3zm-7.5-10.6l7.5 7.6 7.6-7.6-7.6-7.5z"/>
			</g>
			<g id="&lt;Group&gt;">
				<path id="&lt;Compound Path&gt;" fill-rule="evenodd" class="s1" d="m130.3 531.4c-0.3 0-0.6-0.1-0.8-0.4l-9.4-9.3c-0.5-0.5-0.5-1.3 0-1.8l9.4-9.3c0.4-0.5 1.2-0.5 1.7 0l9.3 9.3c0.3 0.3 0.4 0.6 0.4 0.9 0 0.4-0.1 0.7-0.4 0.9l-9.3 9.3c-0.2 0.3-0.5 0.4-0.9 0.4zm-7.5-10.6l7.5 7.6 7.6-7.6-7.6-7.5z"/>
			</g>
			<g id="&lt;Group&gt;">
				<path id="&lt;Compound Path&gt;" fill-rule="evenodd" class="s1" d="m886.8 462.2c-0.3 0-0.6-0.1-0.9-0.4l-9.3-9.3c-0.3-0.2-0.4-0.5-0.4-0.9 0-0.3 0.1-0.6 0.4-0.9l9.3-9.3c0.3-0.2 0.6-0.4 0.9-0.4 0.3 0 0.6 0.2 0.9 0.4l9.3 9.3c0.5 0.5 0.5 1.3 0 1.8l-9.3 9.3c-0.3 0.3-0.6 0.4-0.9 0.4zm-7.6-10.6l7.6 7.6 7.6-7.6-7.6-7.5z"/>
			</g>
			<g id="&lt;Group&gt;">
				<g id="&lt;Group&gt;">
					<path id="&lt;Path&gt;" class="s1" d="m374 158.6h-2.5v-9.6h2.5z"/>
				</g>
				<g id="&lt;Group&gt;">
					<path id="&lt;Path&gt;" class="s1" d="m374 178.2h-2.5v-9.5h2.5z"/>
				</g>
				<g id="&lt;Group&gt;">
					<path id="&lt;Path&gt;" class="s1" d="m367.7 164.9h-9.6v-2.5h9.6z"/>
				</g>
				<g id="&lt;Group&gt;">
					<path id="&lt;Path&gt;" class="s1" d="m387.4 164.9h-9.6v-2.5h9.6z"/>
				</g>
			</g>
			<g id="&lt;Group&gt;">
				<path id="&lt;Compound Path&gt;" class="s2" d="m127.1 474.3h-1.5v-3h1.5zm0-6h-1.5v-3h1.5zm0-6h-1.5v-3h1.5zm0-6h-1.5v-3h1.5zm0-6h-1.5v-3h1.5zm0-6h-1.5v-3h1.5zm0-6h-1.5v-3h1.5zm0-6h-1.5v-3h1.5zm0-6h-1.5v-3h1.5zm0-6h-1.5v-3h1.5zm0-6h-1.5v-3h1.5zm0-6h-1.5v-3h1.5zm0-6h-1.5v-3h1.5zm0-6h-1.5v-3h1.5zm0-6h-1.5v-3h1.5zm0-6h-1.5v-3h1.5zm0-6h-1.5v-3h1.5zm0-6h-1.5v-3h1.5zm0-6h-1.5v-3h1.5zm0-6h-1.5v-3h1.5zm0-6h-1.5v-3h1.5zm0-6h-1.5v-3h1.5zm0-6h-1.5v-3h1.5zm0-6h-1.5v-3h1.5z"/>
			</g>
			<g id="&lt;Group&gt;">
				<path id="&lt;Path&gt;" class="s2" d="m135.3 321.9l-17.8 10.3 8.9-18.7z"/>
			</g>
			<g id="&lt;Group&gt;">
				<path id="&lt;Compound Path&gt;" class="s1" d="m175.2 562.3h-1.5v-3h1.5zm0-6h-1.5v-3h1.5zm0-6h-1.5v-3h1.5zm0-6h-1.5v-3h1.5zm0-6h-1.5v-3h1.5zm0-6h-1.5v-3h1.5zm0-6h-1.5v-3h1.5zm0-6h-1.5v-3h1.5zm0-6h-1.5v-3h1.5zm0-6h-1.5v-3h1.5zm0-6h-1.5v-3h1.5zm0-6h-1.5v-3h1.5zm0-6h-1.5v-3h1.5zm0-6h-1.5v-3h1.5zm0-6h-1.5v-3h1.5zm0-6h-1.5v-3h1.5zm0-6h-1.5v-3h1.5zm0-6h-1.5v-3h1.5zm0-6h-1.5v-3h1.5zm0-6h-1.5v-3h1.5zm0-6h-1.5v-3h1.5z"/>
			</g>
			<g id="&lt;Group&gt;">
				<path id="&lt;Path&gt;" class="s1" d="m183.4 427.9l-17.9 10.2 9-18.6z"/>
			</g>
		</g>
	</g>
</svg>