<svg width="2512" height="829" viewBox="0 0 2512 829" fill="none" xmlns="http://www.w3.org/2000/svg">
<path fill-rule="evenodd" clip-rule="evenodd" d="M967.8 408.562C1009.8 430.062 1033.8 478.462 1034.8 525.662C1035.8 572.862 1016.8 618.662 990.6 658.062C802.8 940.462 370.1 833.562 238.8 554.462C238.8 554.462 19 577.362 0 360.062C102.667 397.729 170.167 402.429 202.5 374.162C199.033 189.162 287.3 69.5626 467.3 15.3626C617.3 -27.0374 714.8 18.3292 759.8 151.462C804.8 303.462 711.333 424.229 479.4 513.762C546.2 611.362 704.2 611.062 776.9 523.462C822 468.962 873.1 369.462 958.2 404.162C961.333 405.429 964.533 406.895 967.8 408.562ZM422.6 318.262C475.4 309.062 536.2 272.862 551.8 217.462C562.3 180.062 530.6 181.462 505 190.162C466.7 203.062 442.2 226.162 422.1 260.762C416.3 270.562 398.6 303.262 407.2 314.762C409.8 318.062 414.6 319.662 422.6 318.262Z" fill="#FF8136"/>
<path d="M855.2 124.862C884.9 105.662 935.5 113.162 966.4 122.562C1047 146.862 1116 204.062 1169.5 268.262C1181.1 282.162 1282.3 398.262 1271.5 414.362C1342.3 308.362 1422.1 204.862 1512.6 115.362C1564.7 63.8624 1638.8 -12.5376 1719.2 12.8624C1780.9 32.2624 1805.5 84.9624 1785.3 146.862C1782.1 156.762 1778 166.262 1773.6 175.562C1771.4 180.162 1760.1 185.562 1756.3 188.562C1740.1 200.962 1724.3 213.862 1708.7 227.062C1655.5 272.062 1605.1 320.762 1558.2 372.462C1499.5 437.262 1446.6 507.462 1402.1 582.962C1382.7 615.962 1363.6 650.262 1348 685.362C1332.5 720.462 1327.4 759.762 1308.5 793.462C1302.3 804.462 1294.3 814.962 1283.2 820.662C1201.1 863.162 1139.2 717.462 1118.4 662.162C1094 596.962 1068.1 532.362 1039.9 468.762C1011 403.362 980.2 337.962 941.5 277.862C915.9 238.162 891.1 205.962 847.1 190.362C847.1 190.362 787.2 169.062 855.2 124.862Z" fill="#FF8136"/>
<path d="M2216.2 649.662C2197.3 657.862 2163.7 669.762 2120.3 669.362C2078.5 668.962 2046.1 657.462 2027.5 649.162C2029.9 642.462 2033.2 634.662 2037.7 626.462C2042.8 617.162 2048.2 609.662 2053 603.662C2059.7 603.562 2092.3 598.962 2123.5 598.562C2155.2 598.062 2185.4 601.862 2185.5 601.862C2190.8 607.362 2196.8 614.462 2202.6 623.362C2208.8 632.962 2213.2 642.062 2216.2 649.662Z" fill="#66493E"/>
<path d="M2202.6 194.162C2196.8 202.962 2190.8 210.062 2185.5 215.562C2185.4 215.562 2155.2 219.362 2123.5 218.962C2092.3 218.562 2059.7 213.962 2053 213.862C2048.2 207.862 2042.8 200.262 2037.7 191.062C2033.2 182.762 2029.9 175.062 2027.5 168.262C2046.1 160.062 2078.5 148.462 2120.3 148.162C2163.7 147.762 2197.3 159.562 2216.2 167.862C2213.2 175.362 2208.8 184.462 2202.6 194.162Z" fill="#66493E"/>
<path d="M2329.9 375.563C2319.6 374.563 2310.7 372.463 2303.5 370.363C2303.4 370.263 2285.9 344.663 2271.2 315.763C2256.8 287.263 2245.3 255.563 2242.2 249.463C2245 242.263 2248.9 233.763 2254.4 224.863C2259.4 216.763 2264.5 210.163 2269.1 204.763C2285 217.663 2310.3 241.663 2330.4 279.363C2351.2 318.363 2357 354.463 2358.9 375.463C2351 376.363 2341.1 376.663 2329.9 375.563Z" fill="#66493E"/>
<path d="M2361.5 442.162C2359.6 463.162 2353.8 499.262 2332.9 538.262C2312.8 575.962 2287.5 599.962 2271.7 612.862C2267 607.462 2261.9 600.862 2257 592.762C2251.5 583.862 2247.6 575.362 2244.8 568.162C2247.8 562.062 2259.3 530.362 2273.8 501.862C2288.4 472.962 2306 447.362 2306 447.262C2313.3 445.162 2322.2 443.062 2332.5 442.062C2343.7 440.962 2353.5 441.262 2361.5 442.162Z" fill="#66493E"/>
<path d="M1882.4 368.963C1884.2 348.063 1890 311.863 1910.9 272.863C1931 235.163 1956.3 211.263 1972.2 198.263C1976.8 203.663 1981.9 210.363 1986.8 218.363C1992.3 227.363 1996.2 235.763 1999.1 243.063C1996 249.063 1984.5 280.763 1970.1 309.263C1955.4 338.163 1937.8 363.763 1937.8 363.863C1930.6 366.063 1921.6 368.063 1911.3 369.063C1900.1 370.263 1890.3 369.863 1882.4 368.963Z" fill="#66493E"/>
<path d="M1906.2 445.163C1916.5 446.263 1925.4 448.263 1932.7 450.463C1932.7 450.563 1950.3 476.163 1964.9 505.063C1979.4 533.563 1990.9 565.263 1993.9 571.263C1991.1 578.463 1987.2 586.963 1981.7 595.963C1976.8 603.963 1971.7 610.663 1967 616.063C1951.2 603.063 1925.9 579.163 1905.8 541.463C1884.9 502.363 1879.1 466.263 1877.2 445.363C1885.2 444.463 1895 444.063 1906.2 445.163Z" fill="#66493E"/>
<path d="M2130.8 606.662H2111.3V211.562H2130.8V606.662Z" fill="#66493E"/>
<path d="M1962.3 520.862L1952.1 503.762L2279.8 297.362L2290 314.562L1962.3 520.862Z" fill="#66493E"/>
<path d="M1949.8 319.062L1959.6 301.562L2292.3 499.163L2282.5 516.662L1949.8 319.062Z" fill="#66493E"/>
<path d="M2119.4 548.062C2194.23 548.062 2254.9 485.695 2254.9 408.762C2254.9 331.829 2194.23 269.462 2119.4 269.462C2044.57 269.462 1983.9 331.829 1983.9 408.762C1983.9 485.695 2044.57 548.062 2119.4 548.062Z" fill="#FF8136"/>
<path d="M2119.4 457.863C2145.74 457.863 2167.1 435.88 2167.1 408.763C2167.1 381.646 2145.74 359.663 2119.4 359.663C2093.06 359.663 2071.7 381.646 2071.7 408.763C2071.7 435.88 2093.06 457.863 2119.4 457.863Z" fill="white"/>
<path d="M1824.8 380.963C1825.07 381.896 1825.17 382.863 1825.1 383.863C1819.3 461.463 1829.6 531.763 1875.9 595.963C1920 656.963 1980.1 689.463 2049.6 709.863C2123.9 731.663 2213.3 708.863 2275.5 664.763C2307.5 642.063 2334.8 612.563 2354.7 578.163C2364.6 561.063 2372.7 542.763 2378.7 523.863C2388.8 491.863 2448.1 502.263 2469.1 513.063C2471.8 514.463 2474.6 516.063 2476.6 518.563C2495.7 541.463 2453 605.663 2441.3 626.163C2421.2 661.263 2395.4 692.863 2365.3 719.363C2304.2 773.463 2226.5 806.063 2146.3 812.863C2107.4 816.163 2068 813.463 2029.8 805.063C1871.4 770.163 1742.3 634.263 1725.2 466.363C1722.5 439.863 1723.2 413.463 1724.8 386.963C1726.7 355.863 1747.2 355.663 1771.4 358.763C1784.8 360.563 1819.9 364.063 1824.8 380.963Z" fill="#FF8136"/>
<path d="M1789.4 310.163C1766.2 302.663 1747.6 293.563 1758.6 264.663C1767.9 239.863 1778 215.563 1791.2 192.663C1875.1 47.5625 2047.7 -20.3375 2205.8 16.2625C2243.9 25.0625 2280.7 39.5625 2314.7 59.3625C2384.8 100.063 2442.1 163.063 2475.6 238.463C2492 275.563 2502.7 315.363 2506.6 355.863C2509 379.463 2521.5 456.263 2494.9 468.863C2492.1 470.163 2488.9 470.463 2485.8 470.563C2462.4 471.363 2404.3 455.263 2408.1 421.863C2410.4 402.063 2410.5 381.963 2408.4 362.163C2404.3 322.363 2391.6 283.763 2371.8 249.463C2333.3 182.563 2261.3 123.363 2185 111.163C2113.5 99.8625 2045.7 103.363 1980.9 139.863C1912.7 178.163 1874.7 237.563 1848.4 310.563C1848.07 311.496 1847.57 312.33 1846.9 313.063C1835.6 326.363 1802.3 314.463 1789.4 310.163Z" fill="#FF8136"/>
</svg>
